<?xml version="1.0" encoding="UTF-8" standalone="no"?>
<svg
   xmlns:dc="http://purl.org/dc/elements/1.1/"
   xmlns:cc="http://creativecommons.org/ns#"
   xmlns:rdf="http://www.w3.org/1999/02/22-rdf-syntax-ns#"
   xmlns:svg="http://www.w3.org/2000/svg"
   xmlns="http://www.w3.org/2000/svg"
   xmlns:xlink="http://www.w3.org/1999/xlink"
   version="1.1"
   id="svg2"
   viewBox="0 0 261.92279 222.95735"
   height="62.923519mm"
   width="73.920433mm">
  <defs
     id="defs4">
    <linearGradient
       id="linearGradient4243">
      <stop
         id="stop4245"
         offset="0"
         style="stop-color:#f3a001;stop-opacity:1;" />
      <stop
         id="stop4247"
         offset="1"
         style="stop-color:#f3a001;stop-opacity:0;" />
    </linearGradient>
    <linearGradient
       id="linearGradient4235">
      <stop
         id="stop4237"
         offset="0"
         style="stop-color:#c1c174;stop-opacity:1;" />
      <stop
         id="stop4239"
         offset="1"
         style="stop-color:#c1c174;stop-opacity:0;" />
    </linearGradient>
    <linearGradient
       id="linearGradient4215">
      <stop
         id="stop4217"
         offset="0"
         style="stop-color:#1c32fc;stop-opacity:1;" />
      <stop
         id="stop4219"
         offset="1"
         style="stop-color:#1c32fc;stop-opacity:0;" />
    </linearGradient>
    <linearGradient
       id="linearGradient4199">
      <stop
         id="stop4201"
         offset="0"
         style="stop-color:#fed37f;stop-opacity:1;" />
      <stop
         id="stop4203"
         offset="1"
         style="stop-color:#fed37f;stop-opacity:0;" />
    </linearGradient>
    <linearGradient
       id="linearGradient4191">
      <stop
         id="stop4193"
         offset="0"
         style="stop-color:#9fb1fc;stop-opacity:1;" />
      <stop
         id="stop4195"
         offset="1"
         style="stop-color:#9fb1fc;stop-opacity:0;" />
    </linearGradient>
    <linearGradient
       id="linearGradient4183">
      <stop
         id="stop4185"
         offset="0"
         style="stop-color:#fffc87;stop-opacity:1;" />
      <stop
         id="stop4187"
         offset="1"
         style="stop-color:#fffc87;stop-opacity:0;" />
    </linearGradient>
    <radialGradient
       spreadMethod="pad"
       gradientUnits="userSpaceOnUse"
       gradientTransform="matrix(2.7984193,0.06780611,-0.05706533,2.3551217,-574.33658,-409.50678)"
       r="89.417282"
       fy="285.75858"
       fx="328.42368"
       cy="285.75858"
       cx="328.42368"
       id="radialGradient4189"
       xlink:href="#linearGradient4183" />
    <linearGradient
       gradientUnits="userSpaceOnUse"
       y2="297.87711"
       x2="545.72144"
       y1="271.57346"
       x1="173.02032"
       id="linearGradient4197"
       xlink:href="#linearGradient4191" />
    <linearGradient
       gradientUnits="userSpaceOnUse"
       y2="260.53137"
       x2="410.49902"
       y1="252.67422"
       x1="162.63181"
       id="linearGradient4205"
       xlink:href="#linearGradient4199" />
    <linearGradient
       gradientUnits="userSpaceOnUse"
       y2="202.0571"
       x2="586.71863"
       y1="271.57346"
       x1="173.02032"
       id="linearGradient4221"
       xlink:href="#linearGradient4215" />
    <linearGradient
       gradientUnits="userSpaceOnUse"
       y2="278.70151"
       x2="710.62091"
       y1="285.75858"
       x1="239.00639"
       id="linearGradient4241"
       xlink:href="#linearGradient4235" />
    <linearGradient
       gradientUnits="userSpaceOnUse"
       y2="171.24565"
       x2="623.35614"
       y1="252.67422"
       x1="162.63181"
       id="linearGradient4249"
       xlink:href="#linearGradient4243" />
  </defs>
  <metadata
     id="metadata7">
    <rdf:RDF>
      <cc:Work
         rdf:about="">
        <dc:format>image/svg+xml</dc:format>
        <dc:type
           rdf:resource="http://purl.org/dc/dcmitype/StillImage" />
        <dc:title></dc:title>
      </cc:Work>
    </rdf:RDF>
  </metadata>
  <g
     transform="translate(-161.92389,-170.35201)"
     id="layer1">
    <g
       id="g4812">
      <g
         id="flowRoot4156"
         style="font-style:normal;font-variant:normal;font-weight:normal;font-stretch:normal;font-size:40px;line-height:125%;font-family:sans-serif;-inkscape-font-specification:sans-serif;letter-spacing:0px;word-spacing:0px;fill:#2a2a2a;fill-opacity:1;stroke:#595959;stroke-width:0.82945317;stroke-linecap:butt;stroke-linejoin:miter;stroke-miterlimit:4;stroke-dasharray:none;stroke-opacity:1"
         transform="matrix(1.5223965,0,0,2.0295677,-88.793974,-424.3454)">
        <path
           id="path5409"
           style="font-style:normal;font-variant:normal;font-weight:bold;font-stretch:condensed;font-size:40.0001297px;line-height:125%;font-family:'Helvetica Neue';-inkscape-font-specification:'Helvetica Neue, Bold Condensed';text-align:start;writing-mode:lr-tb;text-anchor:start;fill:#2a2a2a;fill-opacity:1;stroke:#595959;stroke-width:0.82945317;stroke-miterlimit:4;stroke-dasharray:none;stroke-opacity:1"
           d="m 170.92518,393.15217 -5.76002,0 0,1.16001 q 0,3.96001 2.08001,6.08002 2.12,2.12 7.00002,2.12 4.68001,0 7.28002,-2.04 2.64001,-2.08001 2.64001,-6.60003 0,-1.32 -0.24,-2.4 -0.24,-1.08001 -0.88,-1.96001 -0.6,-0.92 -1.64001,-1.68001 -1.04,-0.8 -2.68001,-1.52 l -4.44001,-1.92001 q -1.84001,-0.76 -2.40001,-1.64 -0.56,-0.92 -0.56,-2.24001 0,-0.64 0.12,-1.24 0.16,-0.60001 0.52,-1.04001 0.4,-0.48 1.04,-0.76 0.64001,-0.28 1.60001,-0.28 1.68001,0 2.40001,1.12 0.72,1.08001 0.72,3.12001 l 5.52002,0 0,-0.8 q 0,-2.04001 -0.68,-3.48001 -0.64001,-1.48 -1.84001,-2.40001 -1.16,-0.96 -2.80001,-1.36 -1.6,-0.44 -3.52001,-0.44 -4.12001,0 -6.48002,2.08 -2.36001,2.08001 -2.36001,6.32002 0,1.76001 0.44,3.12001 0.44,1.32001 1.36001,2.36001 0.96,1 2.36,1.76001 1.40001,0.76 3.32001,1.4 1.44001,0.48 2.40001,0.96 1.00001,0.44001 1.60001,1.00001 0.6,0.56 0.84,1.28 0.28,0.68 0.28,1.64001 0,1.8 -1.08,2.68001 -1.04001,0.84 -2.36001,0.84 -1.12,0 -1.88001,-0.32 -0.72,-0.32 -1.16,-0.88001 -0.44,-0.56 -0.6,-1.36 -0.16,-0.84 -0.16,-1.84001 l 0,-0.84 z" />
        <path
           id="path5411"
           style="font-style:normal;font-variant:normal;font-weight:bold;font-stretch:condensed;font-size:40.0001297px;line-height:125%;font-family:'Helvetica Neue';-inkscape-font-specification:'Helvetica Neue, Bold Condensed';text-align:start;writing-mode:lr-tb;text-anchor:start;fill:#2a2a2a;fill-opacity:1;stroke:#595959;stroke-width:0.82945317;stroke-miterlimit:4;stroke-dasharray:none;stroke-opacity:1"
           d="m 202.94841,373.51211 -15.96006,0 0,28.56009 16.36006,0 0,-4.72001 -10.60004,0 0,-7.68003 9.60003,0 0,-4.72001 -9.60003,0 0,-6.72003 10.20004,0 0,-4.72001 z" />
        <path
           id="path5413"
           style="font-style:normal;font-variant:normal;font-weight:bold;font-stretch:condensed;font-size:40.0001297px;line-height:125%;font-family:'Helvetica Neue';-inkscape-font-specification:'Helvetica Neue, Bold Condensed';text-align:start;writing-mode:lr-tb;text-anchor:start;fill:#2a2a2a;fill-opacity:1;stroke:#595959;stroke-width:0.82945317;stroke-miterlimit:4;stroke-dasharray:none;stroke-opacity:1"
           d="m 206.56529,402.0722 5.76002,0 0,-28.56009 -5.76002,0 0,28.56009 z" />
        <path
           id="path5415"
           style="font-style:normal;font-variant:normal;font-weight:bold;font-stretch:condensed;font-size:40.0001297px;line-height:125%;font-family:'Helvetica Neue';-inkscape-font-specification:'Helvetica Neue, Bold Condensed';text-align:start;writing-mode:lr-tb;text-anchor:start;fill:#2a2a2a;fill-opacity:1;stroke:#595959;stroke-width:0.82945317;stroke-miterlimit:4;stroke-dasharray:none;stroke-opacity:1"
           d="m 221.23784,393.15217 -5.76002,0 0,1.16001 q 0,3.96001 2.08001,6.08002 2.12001,2.12 7.00002,2.12 4.68002,0 7.28003,-2.04 2.64,-2.08001 2.64,-6.60003 0,-1.32 -0.24,-2.4 -0.24,-1.08001 -0.88,-1.96001 -0.6,-0.92 -1.64,-1.68001 -1.04001,-0.8 -2.68001,-1.52 l -4.44002,-1.92001 q -1.84,-0.76 -2.40001,-1.64 -0.56,-0.92 -0.56,-2.24001 0,-0.64 0.12,-1.24 0.16,-0.60001 0.52001,-1.04001 0.4,-0.48 1.04,-0.76 0.64,-0.28 1.6,-0.28 1.68001,0 2.40001,1.12 0.72,1.08001 0.72,3.12001 l 5.52002,0 0,-0.8 q 0,-2.04001 -0.68,-3.48001 -0.64,-1.48 -1.84001,-2.40001 -1.16,-0.96 -2.80001,-1.36 -1.6,-0.44 -3.52001,-0.44 -4.12001,0 -6.48002,2.08 -2.36001,2.08001 -2.36001,6.32002 0,1.76001 0.44001,3.12001 0.44,1.32001 1.36,2.36001 0.96,1 2.36001,1.76001 1.4,0.76 3.32001,1.4 1.44,0.48 2.40001,0.96 1,0.44001 1.6,1.00001 0.6,0.56 0.84,1.28 0.28001,0.68 0.28001,1.64001 0,1.8 -1.08001,2.68001 -1.04,0.84 -2.36001,0.84 -1.12,0 -1.88,-0.32 -0.72,-0.32 -1.16001,-0.88001 -0.44,-0.56 -0.6,-1.36 -0.16,-0.84 -0.16,-1.84001 l 0,-0.84 z" />
        <path
           id="path5417"
           style="font-style:normal;font-variant:normal;font-weight:bold;font-stretch:condensed;font-size:40.0001297px;line-height:125%;font-family:'Helvetica Neue';-inkscape-font-specification:'Helvetica Neue, Bold Condensed';text-align:start;writing-mode:lr-tb;text-anchor:start;fill:#2a2a2a;fill-opacity:1;stroke:#595959;stroke-width:0.82945317;stroke-miterlimit:4;stroke-dasharray:none;stroke-opacity:1"
           d="m 248.34105,388.15216 -11.28003,0 0,4.72001 11.28003,0 0,-4.72001 z" />
        <path
           id="path5419"
           style="font-style:normal;font-variant:normal;font-weight:bold;font-stretch:condensed;font-size:40.0001297px;line-height:125%;font-family:'Helvetica Neue';-inkscape-font-specification:'Helvetica Neue, Bold Condensed';text-align:start;writing-mode:lr-tb;text-anchor:start;fill:#2a2a2a;fill-opacity:1;stroke:#595959;stroke-width:0.82945317;stroke-miterlimit:4;stroke-dasharray:none;stroke-opacity:1"
           d="m 257.90483,386.43215 0,-8.68003 2.40001,0 q 2.16001,0 3.08001,1.12001 0.92,1.12 0.92,3.28001 0,2.2 -1.08,3.24001 -1.04001,1.04 -2.76001,1.04 l -2.56001,0 z m -5.76002,-12.92004 0,28.56009 5.76002,0 0,-11.40004 3.08001,0 q 2.04001,0 3.72001,-0.52 1.68001,-0.52 2.84001,-1.56 1.20001,-1.04001 1.84001,-2.68001 0.68,-1.64001 0.68,-3.84001 0,-1.60001 -0.4,-3.12001 -0.4,-1.56001 -1.32001,-2.76001 -0.92,-1.20001 -2.44,-1.92001 -1.48001,-0.76 -3.68001,-0.76 l -10.08004,0 z" />
        <path
           id="path5421"
           style="font-style:normal;font-variant:normal;font-weight:bold;font-stretch:condensed;font-size:40.0001297px;line-height:125%;font-family:'Helvetica Neue';-inkscape-font-specification:'Helvetica Neue, Bold Condensed';text-align:start;writing-mode:lr-tb;text-anchor:start;fill:#2a2a2a;fill-opacity:1;stroke:#595959;stroke-width:0.82945317;stroke-miterlimit:4;stroke-dasharray:none;stroke-opacity:1"
           d="m 273.00426,373.51211 0,28.56009 5.76001,0 0,-12.08004 3.08001,0 q 1.80001,0 2.56001,0.96 0.76001,0.96001 0.84001,2.64001 l 0.16,5.48002 q 0.04,0.84 0.16,1.64001 0.12,0.76 0.56,1.36 l 6.24002,0 0,-0.24 q -0.8,-0.44 -1.04,-1.64001 -0.16001,-1.2 -0.24001,-3.48001 -0.04,-1.16 -0.08,-2.08 -0.04,-0.96001 -0.12,-1.76001 -0.24,-2.40001 -1.24,-3.48001 -1,-1.08 -3.16001,-1.4 l 0,-0.08 q 2.44001,-0.52 3.60001,-2.32 1.16001,-1.84001 1.16001,-4.72002 0,-3.72001 -2.00001,-5.52002 -2.00001,-1.84 -5.60002,-1.84 l -10.64003,0 z m 5.76001,12.48004 0,-8.24003 2.72001,0 q 4.00002,0 4.00002,3.96001 0,2.32001 -1.12001,3.32002 -1.12,0.96 -3.20001,0.96 l -2.40001,0 z" />
        <path
           id="path5423"
           style="font-style:normal;font-variant:normal;font-weight:bold;font-stretch:condensed;font-size:40.0001297px;line-height:125%;font-family:'Helvetica Neue';-inkscape-font-specification:'Helvetica Neue, Bold Condensed';text-align:start;writing-mode:lr-tb;text-anchor:start;fill:#2a2a2a;fill-opacity:1;stroke:#595959;stroke-width:0.82945317;stroke-miterlimit:4;stroke-dasharray:none;stroke-opacity:1"
           d="m 300.50809,387.79215 q 0,-2.88 0.12,-4.88001 0.16,-2.00001 0.56,-3.28001 0.44001,-1.28001 1.20001,-1.84001 0.8,-0.6 2.08,-0.6 1.28001,0 2.04001,0.6 0.8,0.56 1.2,1.84001 0.44001,1.28 0.56001,3.28001 0.16,2.00001 0.16,4.88001 0,2.88001 -0.16,4.92002 -0.12,2.00001 -0.56001,3.28001 -0.4,1.24 -1.2,1.84001 -0.76,0.56 -2.04001,0.56 -1.28,0 -2.08,-0.56 -0.76,-0.60001 -1.20001,-1.84001 -0.4,-1.28 -0.56,-3.28001 -0.12,-2.04001 -0.12,-4.92002 z m -5.76002,0 q 0,3.28002 0.28,6.00002 0.32,2.72001 1.32001,4.68002 1.04,1.96001 2.96001,3.00001 1.92,1.04 5.16001,1.04 3.24001,0 5.16002,-1.04 1.92001,-1.04 2.92001,-3.00001 1.04,-1.96001 1.32,-4.68002 0.32001,-2.72 0.32001,-6.00002 0,-3.24001 -0.32001,-5.96001 -0.28,-2.76001 -1.32,-4.72002 -1,-1.96001 -2.92001,-3.04001 -1.92001,-1.12 -5.16002,-1.12 -3.24001,0 -5.16001,1.12 -1.92001,1.08 -2.96001,3.04001 -1.00001,1.96001 -1.32001,4.72002 -0.28,2.72 -0.28,5.96001 z" />
        <path
           id="path5425"
           style="font-style:normal;font-variant:normal;font-weight:bold;font-stretch:condensed;font-size:40.0001297px;line-height:125%;font-family:'Helvetica Neue';-inkscape-font-specification:'Helvetica Neue, Bold Condensed';text-align:start;writing-mode:lr-tb;text-anchor:start;fill:#2a2a2a;fill-opacity:1;stroke:#595959;stroke-width:0.82945317;stroke-miterlimit:4;stroke-dasharray:none;stroke-opacity:1"
           d="m 321.89379,373.51211 -6.16002,0 6.56002,28.56009 7.40003,0 6.56002,-28.56009 -5.96002,0 -4.24002,21.12007 -0.12,0 -4.04001,-21.12007 z" />
      </g>
      <g
         id="g4251"
         transform="translate(7.2363428,0)">
        <path
           id="path4144"
           d="m 164.18331,285.43529 1.56335,-45.37361 72.09584,-22.99179 70.41003,27.20559 -1.3652,44.06286 z"
           style="fill:url(#linearGradient4205);fill-opacity:1;stroke:url(#linearGradient4249);stroke-width:3;stroke-linecap:butt;stroke-miterlimit:10;stroke-dasharray:none;stroke-dashoffset:0;stroke-opacity:0.62745098" />
        <rect
           transform="matrix(0.97922281,-0.20278729,0.20278729,0.97922281,0,0)"
           y="246.13385"
           x="171.0231"
           height="49.430706"
           width="168.71642"
           id="rect4140"
           style="fill:url(#linearGradient4197);fill-opacity:1;stroke:url(#linearGradient4221);stroke-width:3;stroke-linecap:butt;stroke-miterlimit:10;stroke-dasharray:none;stroke-dashoffset:0;stroke-opacity:0.62745098" />
        <ellipse
           transform="matrix(0.99950656,0.03141076,-0.03141076,0.99950656,0,0)"
           ry="33.631554"
           rx="87.917282"
           cy="285.75858"
           cx="328.42368"
           id="path4142"
           style="fill:url(#radialGradient4189);fill-opacity:1;fill-rule:nonzero;stroke:url(#linearGradient4241);stroke-width:3;stroke-linecap:butt;stroke-miterlimit:10;stroke-dasharray:none;stroke-dashoffset:0;stroke-opacity:0.62745098" />
      </g>
    </g>
  </g>
</svg>
