<?xml version="1.0" encoding="UTF-8" standalone="no"?>
<!DOCTYPE svg PUBLIC "-//W3C//DTD SVG 1.1//EN"
 "http://www.w3.org/Graphics/SVG/1.1/DTD/svg11.dtd">
<!-- Generated by graphviz version 2.26.3 (20100126.1600)
 -->
<!-- Title: G Pages: 1 -->
<svg width="306pt" height="158pt"
 viewBox="0.00 0.00 306.00 158.00" xmlns="http://www.w3.org/2000/svg" xmlns:xlink="http://www.w3.org/1999/xlink">
<g id="graph1" class="graph" transform="scale(1 1) rotate(0) translate(4 154)">
<title>G</title>
<polygon fill="white" stroke="white" points="-4,5 -4,-154 303,-154 303,5 -4,5"/>
<!-- n1 -->
<g id="node1" class="node"><title>n1</title>
<a xlink:href="http://seisprov.org/seis_prov/0.1/#sp001_og_f06b02d" xlink:title="Example Organization&lt;br /&gt;&lt;font color=&quot;#333333&quot; point&#45;size=&quot;10&quot;&gt;seis_prov:sp001_og_f06b02d&lt;/font&gt;">
<polygon fill="#fed37f" stroke="black" points="298,-127.043 149,-149.5 2.84217e-14,-127.043 0.139074,-90.7069 297.861,-90.7069 298,-127.043"/>
<text text-anchor="start" x="72" y="-121.233" font-family="Times Roman,serif" font-size="14.00">Example Organization</text>
<text text-anchor="start" x="79.5" y="-107.367" font-family="Times Roman,serif" font-size="10.00" fill="#333333">seis_prov:sp001_og_f06b02d</text>
</a>
</g>
<!-- ann1 -->
<g id="node2" class="node"><title>ann1</title>
<polygon fill="none" stroke="gray" points="245,-47.5 47,-47.5 47,-0.5 251,-0.5 251,-41.5 245,-47.5"/>
<polyline fill="none" stroke="gray" points="245,-47.5 245,-41.5 "/>
<polyline fill="none" stroke="gray" points="251,-41.5 245,-41.5 "/>
<a xlink:href="http://www.w3.org/ns/prov#label" xlink:title="&lt;TABLE&gt;">
<text text-anchor="start" x="57" y="-33.1667" font-family="Times Roman,serif" font-size="10.00">prov:label</text>
</a>
<text text-anchor="start" x="136" y="-33.1667" font-family="Times Roman,serif" font-size="10.00">Example Organization</text>
<a xlink:href="http://www.w3.org/ns/prov#type" xlink:title="&lt;TABLE&gt;">
<text text-anchor="start" x="57" y="-20.6667" font-family="Times Roman,serif" font-size="10.00">prov:type</text>
</a>
<a xlink:href="http://www.w3.org/ns/prov#Organization" xlink:title="&lt;TABLE&gt;">
<text text-anchor="start" x="136" y="-20.6667" font-family="Times Roman,serif" font-size="10.00">prov:Organization</text>
</a>
<a xlink:href="http://seisprov.org/seis_prov/0.1/#name" xlink:title="&lt;TABLE&gt;">
<text text-anchor="start" x="57" y="-8.66667" font-family="Times Roman,serif" font-size="10.00">seis_prov:name</text>
</a>
<text text-anchor="start" x="136" y="-8.66667" font-family="Times Roman,serif" font-size="10.00">Example Organization</text>
</g>
<!-- ann1&#45;&gt;n1 -->
<g id="edge2" class="edge"><title>ann1&#45;&gt;n1</title>
<path fill="none" stroke="gray" stroke-dasharray="5,2" d="M149,-47.9498C149,-60.974 149,-77.1123 149,-90.5113"/>
</g>
</g>
</svg>
