<?xml version="1.0" encoding="UTF-8" standalone="no"?>
<!DOCTYPE svg PUBLIC "-//W3C//DTD SVG 1.1//EN"
 "http://www.w3.org/Graphics/SVG/1.1/DTD/svg11.dtd">
<!-- Generated by graphviz version 2.38.0 (20140413.2041)
 -->
<!-- Title: G Pages: 1 -->
<svg width="187pt" height="125pt"
 viewBox="0.00 0.00 187.00 125.25" xmlns="http://www.w3.org/2000/svg" xmlns:xlink="http://www.w3.org/1999/xlink">
<g id="graph0" class="graph" transform="scale(1 1) rotate(0) translate(4 121.255)">
<title>G</title>
<polygon fill="white" stroke="none" points="-4,4 -4,-121.255 183,-121.255 183,4 -4,4"/>
<!-- n1 -->
<g id="node1" class="node"><title>n1</title>
<g id="a_node1"><a xlink:href="http://seisprov.org/seis_prov/0.1/#001_wf_726c9c4" xlink:title="Waveform Trace&lt;br /&gt;&lt;font color=&quot;#333333&quot; point&#45;size=&quot;10&quot;&gt;seis_prov:001_wf_726c9c4&lt;/font&gt;">
<ellipse fill="#fffc87" stroke="#808080" cx="89.5" cy="-94.6274" rx="89.5" ry="22.7556"/>
<text text-anchor="start" x="42.8174" y="-96.4274" font-family="Times,serif" font-size="14.00">Waveform Trace</text>
<text text-anchor="start" x="34.2314" y="-85.6274" font-family="Times,serif" font-size="10.00" fill="#333333">seis_prov:001_wf_726c9c4</text>
</a>
</g>
</g>
<!-- ann1 -->
<g id="node2" class="node"><title>ann1</title>
<polygon fill="none" stroke="gray" points="167.5,-36 5.5,-36 5.5,-0 173.5,-0 173.5,-30 167.5,-36"/>
<polyline fill="none" stroke="gray" points="167.5,-36 167.5,-30 "/>
<polyline fill="none" stroke="gray" points="173.5,-30 167.5,-30 "/>
<g id="a_node2_0"><a xlink:href="http://www.w3.org/ns/prov#label" xlink:title="&lt;TABLE&gt;">
<text text-anchor="start" x="15.229" y="-21" font-family="Times,serif" font-size="10.00">prov:label</text>
</a>
</g>
<text text-anchor="start" x="57.5" y="-21" font-family="Times,serif" font-size="10.00">Waveform Trace</text>
<g id="a_node2_1"><a xlink:href="http://www.w3.org/ns/prov#type" xlink:title="&lt;TABLE&gt;">
<text text-anchor="start" x="15.5" y="-9" font-family="Times,serif" font-size="10.00">prov:type</text>
</a>
</g>
<text text-anchor="start" x="57.4653" y="-9" font-family="Times,serif" font-size="10.00">seis_prov:waveform_trace</text>
</g>
<!-- ann1&#45;&gt;n1 -->
<g id="edge1" class="edge"><title>ann1&#45;&gt;n1</title>
<path fill="none" stroke="gray" stroke-dasharray="5,2" d="M89.5,-36.3086C89.5,-46.9009 89.5,-60.5467 89.5,-71.8666"/>
</g>
</g>
</svg>
