<?xml version="1.0" encoding="UTF-8" standalone="no"?>
<!DOCTYPE svg PUBLIC "-//W3C//DTD SVG 1.1//EN"
 "http://www.w3.org/Graphics/SVG/1.1/DTD/svg11.dtd">
<!-- Generated by graphviz version 2.26.3 (20100126.1600)
 -->
<!-- Title: G Pages: 1 -->
<svg width="222pt" height="130pt"
 viewBox="0.00 0.00 222.00 130.00" xmlns="http://www.w3.org/2000/svg" xmlns:xlink="http://www.w3.org/1999/xlink">
<g id="graph1" class="graph" transform="scale(1 1) rotate(0) translate(4 126)">
<title>G</title>
<polygon fill="white" stroke="white" points="-4,5 -4,-126 219,-126 219,5 -4,5"/>
<!-- n1 -->
<g id="node1" class="node"><title>n1</title>
<a xlink:href="http://seisprov.org/seis_prov/0.1/#sp001_pd_5936410" xlink:title="Pad&lt;br /&gt;&lt;font color=&quot;#333333&quot; point&#45;size=&quot;10&quot;&gt;seis_prov:sp001_pd_5936410&lt;/font&gt;">
<polygon fill="#9fb1fc" stroke="#0000ff" points="186,-121.5 28,-121.5 28,-84.5 186,-84.5 186,-121.5"/>
<text text-anchor="start" x="94.5" y="-107.233" font-family="Times Roman,serif" font-size="14.00">Pad</text>
<text text-anchor="start" x="36" y="-93.3667" font-family="Times Roman,serif" font-size="10.00" fill="#333333">seis_prov:sp001_pd_5936410</text>
</a>
</g>
<!-- ann1 -->
<g id="node2" class="node"><title>ann1</title>
<polygon fill="none" stroke="gray" points="208,-47.5 8.52651e-14,-47.5 0,-0.5 214,-0.5 214,-41.5 208,-47.5"/>
<polyline fill="none" stroke="gray" points="208,-47.5 208,-41.5 "/>
<polyline fill="none" stroke="gray" points="214,-41.5 208,-41.5 "/>
<a xlink:href="http://www.w3.org/ns/prov#label" xlink:title="&lt;TABLE&gt;">
<text text-anchor="start" x="10" y="-33.1667" font-family="Times Roman,serif" font-size="10.00">prov:label</text>
</a>
<text text-anchor="start" x="101" y="-33.1667" font-family="Times Roman,serif" font-size="10.00">Pad</text>
<a xlink:href="http://www.w3.org/ns/prov#type" xlink:title="&lt;TABLE&gt;">
<text text-anchor="start" x="10" y="-20.6667" font-family="Times Roman,serif" font-size="10.00">prov:type</text>
</a>
<text text-anchor="start" x="101" y="-20.6667" font-family="Times Roman,serif" font-size="10.00">seis_prov:pad</text>
<a xlink:href="http://seisprov.org/seis_prov/0.1/#fill_value" xlink:title="&lt;TABLE&gt;">
<text text-anchor="start" x="10" y="-8.66667" font-family="Times Roman,serif" font-size="10.00">seis_prov:fill_value</text>
</a>
<text text-anchor="start" x="101" y="-8.66667" font-family="Times Roman,serif" font-size="10.00">&quot;0.0&quot; %% xsd:decimal</text>
</g>
<!-- ann1&#45;&gt;n1 -->
<g id="edge2" class="edge"><title>ann1&#45;&gt;n1</title>
<path fill="none" stroke="gray" stroke-dasharray="5,2" d="M107,-47.7026C107,-59.4285 107,-73.3781 107,-84.3328"/>
</g>
</g>
</svg>
