<?xml version="1.0" encoding="UTF-8" standalone="no"?>
<!DOCTYPE svg PUBLIC "-//W3C//DTD SVG 1.1//EN"
 "http://www.w3.org/Graphics/SVG/1.1/DTD/svg11.dtd">
<!-- Generated by graphviz version 2.38.0 (20140413.2041)
 -->
<!-- Title: G Pages: 1 -->
<svg width="132pt" height="116pt"
 viewBox="0.00 0.00 132.00 116.00" xmlns="http://www.w3.org/2000/svg" xmlns:xlink="http://www.w3.org/1999/xlink">
<g id="graph0" class="graph" transform="scale(1 1) rotate(0) translate(4 112)">
<title>G</title>
<polygon fill="white" stroke="none" points="-4,4 -4,-112 128,-112 128,4 -4,4"/>
<!-- n1 -->
<g id="node1" class="node"><title>n1</title>
<g id="a_node1"><a xlink:href="http://seisprov.org/seis_prov/0.1/#001_ct_d8856c7" xlink:title="Cut&lt;br /&gt;&lt;font color=&quot;#333333&quot; point&#45;size=&quot;10&quot;&gt;seis_prov:001_ct_d8856c7&lt;/font&gt;">
<polygon fill="#9fb1fc" stroke="#0000ff" points="124,-108 0,-108 0,-72 124,-72 124,-108"/>
<text text-anchor="start" x="51.8862" y="-91.8" font-family="Times,serif" font-size="14.00">Cut</text>
<text text-anchor="start" x="8.11816" y="-81" font-family="Times,serif" font-size="10.00" fill="#333333">seis_prov:001_ct_d8856c7</text>
</a>
</g>
</g>
<!-- ann1 -->
<g id="node2" class="node"><title>ann1</title>
<polygon fill="none" stroke="gray" points="113.5,-36 4.5,-36 4.5,-0 119.5,-0 119.5,-30 113.5,-36"/>
<polyline fill="none" stroke="gray" points="113.5,-36 113.5,-30 "/>
<polyline fill="none" stroke="gray" points="119.5,-30 113.5,-30 "/>
<g id="a_node2_0"><a xlink:href="http://www.w3.org/ns/prov#label" xlink:title="&lt;TABLE&gt;">
<text text-anchor="start" x="14.729" y="-21" font-family="Times,serif" font-size="10.00">prov:label</text>
</a>
</g>
<text text-anchor="start" x="57" y="-21" font-family="Times,serif" font-size="10.00">Cut</text>
<g id="a_node2_1"><a xlink:href="http://www.w3.org/ns/prov#type" xlink:title="&lt;TABLE&gt;">
<text text-anchor="start" x="15" y="-9" font-family="Times,serif" font-size="10.00">prov:type</text>
</a>
</g>
<text text-anchor="start" x="56.8374" y="-9" font-family="Times,serif" font-size="10.00">seis_prov:cut</text>
</g>
<!-- ann1&#45;&gt;n1 -->
<g id="edge1" class="edge"><title>ann1&#45;&gt;n1</title>
<path fill="none" stroke="gray" stroke-dasharray="5,2" d="M62,-36.3034C62,-47.1537 62,-61.0833 62,-71.8957"/>
</g>
</g>
</svg>
