<?xml version="1.0" encoding="UTF-8" standalone="no"?>
<!DOCTYPE svg PUBLIC "-//W3C//DTD SVG 1.1//EN"
 "http://www.w3.org/Graphics/SVG/1.1/DTD/svg11.dtd">
<!-- Generated by graphviz version 2.38.0 (20140413.2041)
 -->
<!-- Title: G Pages: 1 -->
<svg width="164pt" height="126pt"
 viewBox="0.00 0.00 164.00 126.00" xmlns="http://www.w3.org/2000/svg" xmlns:xlink="http://www.w3.org/1999/xlink">
<g id="graph0" class="graph" transform="scale(1 1) rotate(0) translate(4 122)">
<title>G</title>
<polygon fill="white" stroke="none" points="-4,4 -4,-122 160,-122 160,4 -4,4"/>
<!-- n1 -->
<g id="node1" class="node"><title>n1</title>
<g id="a_node1"><a xlink:href="http://seisprov.org/seis_prov/0.1/#001_dv_52c7b6f" xlink:title="Divide&lt;br /&gt;&lt;font color=&quot;#333333&quot; point&#45;size=&quot;10&quot;&gt;seis_prov:001_dv_52c7b6f&lt;/font&gt;">
<polygon fill="#9fb1fc" stroke="#0000ff" points="140.5,-118 15.5,-118 15.5,-82 140.5,-82 140.5,-118"/>
<text text-anchor="start" x="58.9482" y="-101.8" font-family="Times,serif" font-size="14.00">Divide</text>
<text text-anchor="start" x="23.5615" y="-91" font-family="Times,serif" font-size="10.00" fill="#333333">seis_prov:001_dv_52c7b6f</text>
</a>
</g>
</g>
<!-- ann1 -->
<g id="node2" class="node"><title>ann1</title>
<polygon fill="none" stroke="gray" points="150,-46 0,-46 0,-0 156,-0 156,-40 150,-46"/>
<polyline fill="none" stroke="gray" points="150,-46 150,-40 "/>
<polyline fill="none" stroke="gray" points="156,-40 150,-40 "/>
<g id="a_node2_0"><a xlink:href="http://www.w3.org/ns/prov#label" xlink:title="&lt;TABLE&gt;">
<text text-anchor="start" x="10" y="-32" font-family="Times,serif" font-size="10.00">prov:label</text>
</a>
</g>
<text text-anchor="start" x="80" y="-32" font-family="Times,serif" font-size="10.00">Divide</text>
<g id="a_node2_1"><a xlink:href="http://www.w3.org/ns/prov#type" xlink:title="&lt;TABLE&gt;">
<text text-anchor="start" x="10" y="-20" font-family="Times,serif" font-size="10.00">prov:type</text>
</a>
</g>
<text text-anchor="start" x="79.9482" y="-20" font-family="Times,serif" font-size="10.00">seis_prov:divide</text>
<g id="a_node2_2"><a xlink:href="http://seisprov.org/seis_prov/0.1/#divisor" xlink:title="&lt;TABLE&gt;">
<text text-anchor="start" x="9.55664" y="-8" font-family="Times,serif" font-size="10.00">seis_prov:divisor</text>
</a>
</g>
<text text-anchor="start" x="80" y="-8" font-family="Times,serif" font-size="10.00">2.5</text>
</g>
<!-- ann1&#45;&gt;n1 -->
<g id="edge1" class="edge"><title>ann1&#45;&gt;n1</title>
<path fill="none" stroke="gray" stroke-dasharray="5,2" d="M78,-46.0968C78,-57.5041 78,-71.2129 78,-81.817"/>
</g>
</g>
</svg>
