<?xml version="1.0" encoding="UTF-8" standalone="no"?>
<!DOCTYPE svg PUBLIC "-//W3C//DTD SVG 1.1//EN"
 "http://www.w3.org/Graphics/SVG/1.1/DTD/svg11.dtd">
<!-- Generated by graphviz version 2.26.3 (20100126.1600)
 -->
<!-- Title: G Pages: 1 -->
<svg width="162pt" height="118pt"
 viewBox="0.00 0.00 162.00 118.00" xmlns="http://www.w3.org/2000/svg" xmlns:xlink="http://www.w3.org/1999/xlink">
<g id="graph1" class="graph" transform="scale(1 1) rotate(0) translate(4 114)">
<title>G</title>
<polygon fill="white" stroke="white" points="-4,5 -4,-114 159,-114 159,5 -4,5"/>
<!-- n1 -->
<g id="node1" class="node"><title>n1</title>
<a xlink:href="http://seisprov.org/seis_prov/0.1/#sp001_ct_e73ced0" xlink:title="Cut&lt;br /&gt;&lt;font color=&quot;#333333&quot; point&#45;size=&quot;10&quot;&gt;seis_prov:sp001_ct_e73ced0&lt;/font&gt;">
<polygon fill="#9fb1fc" stroke="#0000ff" points="154,-109.5 7.10543e-14,-109.5 0,-72.5 154,-72.5 154,-109.5"/>
<text text-anchor="start" x="64.5" y="-95.2333" font-family="Times Roman,serif" font-size="14.00">Cut</text>
<text text-anchor="start" x="8" y="-81.3667" font-family="Times Roman,serif" font-size="10.00" fill="#333333">seis_prov:sp001_ct_e73ced0</text>
</a>
</g>
<!-- ann1 -->
<g id="node2" class="node"><title>ann1</title>
<polygon fill="none" stroke="gray" points="137,-36 11,-36 11,-1.77636e-14 143,-3.55271e-15 143,-30 137,-36"/>
<polyline fill="none" stroke="gray" points="137,-36 137,-30 "/>
<polyline fill="none" stroke="gray" points="143,-30 137,-30 "/>
<a xlink:href="http://www.w3.org/ns/prov#label" xlink:title="&lt;TABLE&gt;">
<text text-anchor="start" x="21" y="-21.1667" font-family="Times Roman,serif" font-size="10.00">prov:label</text>
</a>
<text text-anchor="start" x="70" y="-21.1667" font-family="Times Roman,serif" font-size="10.00">Cut</text>
<a xlink:href="http://www.w3.org/ns/prov#type" xlink:title="&lt;TABLE&gt;">
<text text-anchor="start" x="21" y="-8.66667" font-family="Times Roman,serif" font-size="10.00">prov:type</text>
</a>
<text text-anchor="start" x="70" y="-8.66667" font-family="Times Roman,serif" font-size="10.00">seis_prov:cut</text>
</g>
<!-- ann1&#45;&gt;n1 -->
<g id="edge2" class="edge"><title>ann1&#45;&gt;n1</title>
<path fill="none" stroke="gray" stroke-dasharray="5,2" d="M77,-36.0449C77,-47.107 77,-61.238 77,-72.4005"/>
</g>
</g>
</svg>
