<?xml version="1.0" encoding="UTF-8" standalone="no"?>
<!DOCTYPE svg PUBLIC "-//W3C//DTD SVG 1.1//EN"
 "http://www.w3.org/Graphics/SVG/1.1/DTD/svg11.dtd">
<!-- Generated by graphviz version 2.38.0 (20140413.2041)
 -->
<!-- Title: G Pages: 1 -->
<svg width="1030pt" height="684pt"
 viewBox="0.00 0.00 1030.00 684.25" xmlns="http://www.w3.org/2000/svg" xmlns:xlink="http://www.w3.org/1999/xlink">
<g id="graph0" class="graph" transform="scale(1 1) rotate(0) translate(4 680.255)">
<title>G</title>
<polygon fill="white" stroke="none" points="-4,4 -4,-680.255 1026,-680.255 1026,4 -4,4"/>
<!-- n1 -->
<g id="node1" class="node"><title>n1</title>
<g id="a_node1"><a xlink:href="http://seisprov.org/seis_prov/0.1/#wf_A34J4DIDJ3" xlink:title="Waveform Trace&lt;br /&gt;&lt;font color=&quot;#333333&quot; point&#45;size=&quot;10&quot;&gt;seis_prov:wf_A34J4DIDJ3&lt;/font&gt;">
<ellipse fill="#fffc87" stroke="#808080" cx="133" cy="-653.627" rx="88.8972" ry="22.7556"/>
<text text-anchor="start" x="86.3174" y="-655.427" font-family="Times,serif" font-size="14.00">Waveform Trace</text>
<text text-anchor="start" x="78.2808" y="-644.627" font-family="Times,serif" font-size="10.00" fill="#333333">seis_prov:wf_A34J4DIDJ3</text>
</a>
</g>
</g>
<!-- ann1 -->
<g id="node2" class="node"><title>ann1</title>
<polygon fill="none" stroke="gray" points="162,-585 0,-585 0,-549 168,-549 168,-579 162,-585"/>
<polyline fill="none" stroke="gray" points="162,-585 162,-579 "/>
<polyline fill="none" stroke="gray" points="168,-579 162,-579 "/>
<g id="a_node2_0"><a xlink:href="http://www.w3.org/ns/prov#label" xlink:title="&lt;TABLE&gt;">
<text text-anchor="start" x="9.729" y="-570" font-family="Times,serif" font-size="10.00">prov:label</text>
</a>
</g>
<text text-anchor="start" x="52" y="-570" font-family="Times,serif" font-size="10.00">Waveform Trace</text>
<g id="a_node2_1"><a xlink:href="http://www.w3.org/ns/prov#type" xlink:title="&lt;TABLE&gt;">
<text text-anchor="start" x="10" y="-558" font-family="Times,serif" font-size="10.00">prov:type</text>
</a>
</g>
<text text-anchor="start" x="51.9653" y="-558" font-family="Times,serif" font-size="10.00">seis_prov:waveform_trace</text>
</g>
<!-- ann1&#45;&gt;n1 -->
<g id="edge1" class="edge"><title>ann1&#45;&gt;n1</title>
<path fill="none" stroke="gray" stroke-dasharray="5,2" d="M93.9159,-585.126C101.578,-598.359 112.233,-616.761 120.483,-631.009"/>
</g>
<!-- n2 -->
<g id="node3" class="node"><title>n2</title>
<g id="a_node3"><a xlink:href="http://seisprov.org/seis_prov/0.1/#dt_F87SF7SF78" xlink:title="Detrend&lt;br /&gt;&lt;font color=&quot;#333333&quot; point&#45;size=&quot;10&quot;&gt;seis_prov:dt_F87SF7SF78&lt;/font&gt;">
<polygon fill="#9fb1fc" stroke="#0000ff" points="309.5,-585 186.5,-585 186.5,-549 309.5,-549 309.5,-585"/>
<text text-anchor="start" x="225.455" y="-568.8" font-family="Times,serif" font-size="14.00">Detrend</text>
<text text-anchor="start" x="194.653" y="-558" font-family="Times,serif" font-size="10.00" fill="#333333">seis_prov:dt_F87SF7SF78</text>
</a>
</g>
</g>
<!-- n2&#45;&gt;n1 -->
<g id="edge2" class="edge"><title>n2&#45;&gt;n1</title>
<path fill="none" stroke="#8b0000" d="M224.728,-585.126C208.792,-596.853 187.341,-612.639 169.19,-625.996"/>
<polygon fill="#8b0000" stroke="#8b0000" points="167.094,-623.193 161.114,-631.939 171.242,-628.831 167.094,-623.193"/>
<text text-anchor="middle" x="206.165" y="-605" font-family="Times,serif" font-size="10.00" fill="red">used</text>
</g>
<!-- ann2 -->
<g id="node4" class="node"><title>ann2</title>
<polygon fill="none" stroke="gray" points="285.5,-503 80.5,-503 80.5,-457 291.5,-457 291.5,-497 285.5,-503"/>
<polyline fill="none" stroke="gray" points="285.5,-503 285.5,-497 "/>
<polyline fill="none" stroke="gray" points="291.5,-497 285.5,-497 "/>
<g id="a_node4_2"><a xlink:href="http://www.w3.org/ns/prov#label" xlink:title="&lt;TABLE&gt;">
<text text-anchor="start" x="91" y="-489" font-family="Times,serif" font-size="10.00">prov:label</text>
</a>
</g>
<text text-anchor="start" x="211" y="-489" font-family="Times,serif" font-size="10.00">Detrend</text>
<g id="a_node4_3"><a xlink:href="http://www.w3.org/ns/prov#type" xlink:title="&lt;TABLE&gt;">
<text text-anchor="start" x="91" y="-477" font-family="Times,serif" font-size="10.00">prov:type</text>
</a>
</g>
<text text-anchor="start" x="210.953" y="-477" font-family="Times,serif" font-size="10.00">seis_prov:detrend</text>
<g id="a_node4_4"><a xlink:href="http://seisprov.org/seis_prov/0.1/#detrending_method" xlink:title="&lt;TABLE&gt;">
<text text-anchor="start" x="90.5664" y="-465" font-family="Times,serif" font-size="10.00">seis_prov:detrending_method</text>
</a>
</g>
<text text-anchor="start" x="211" y="-465" font-family="Times,serif" font-size="10.00">demean</text>
</g>
<!-- ann2&#45;&gt;n2 -->
<g id="edge3" class="edge"><title>ann2&#45;&gt;n2</title>
<path fill="none" stroke="gray" stroke-dasharray="5,2" d="M202.29,-503.333C212.694,-517.597 225.977,-535.807 235.54,-548.917"/>
</g>
<!-- n3 -->
<g id="node5" class="node"><title>n3</title>
<g id="a_node5"><a xlink:href="http://seisprov.org/seis_prov/0.1/#wf_JS83HF34AJ" xlink:title="Waveform Trace&lt;br /&gt;&lt;font color=&quot;#333333&quot; point&#45;size=&quot;10&quot;&gt;seis_prov:wf_JS83HF34AJ&lt;/font&gt;">
<ellipse fill="#fffc87" stroke="#808080" cx="399" cy="-480" rx="89.2048" ry="22.7556"/>
<text text-anchor="start" x="352.317" y="-481.8" font-family="Times,serif" font-size="14.00">Waveform Trace</text>
<text text-anchor="start" x="343.995" y="-471" font-family="Times,serif" font-size="10.00" fill="#333333">seis_prov:wf_JS83HF34AJ</text>
</a>
</g>
</g>
<!-- n3&#45;&gt;n2 -->
<g id="edge4" class="edge"><title>n3&#45;&gt;n2</title>
<path fill="none" stroke="darkgreen" d="M363.597,-500.929C340.718,-513.808 310.918,-530.583 287.305,-543.875"/>
<polygon fill="darkgreen" stroke="darkgreen" points="285.583,-540.828 278.586,-548.783 289.017,-546.928 285.583,-540.828"/>
<text text-anchor="middle" x="357.153" y="-523" font-family="Times,serif" font-size="10.00" fill="darkgreen">wasGeneratedBy</text>
</g>
<!-- ann3 -->
<g id="node6" class="node"><title>ann3</title>
<polygon fill="none" stroke="gray" points="428,-411 266,-411 266,-375 434,-375 434,-405 428,-411"/>
<polyline fill="none" stroke="gray" points="428,-411 428,-405 "/>
<polyline fill="none" stroke="gray" points="434,-405 428,-405 "/>
<g id="a_node6_5"><a xlink:href="http://www.w3.org/ns/prov#label" xlink:title="&lt;TABLE&gt;">
<text text-anchor="start" x="275.729" y="-396" font-family="Times,serif" font-size="10.00">prov:label</text>
</a>
</g>
<text text-anchor="start" x="318" y="-396" font-family="Times,serif" font-size="10.00">Waveform Trace</text>
<g id="a_node6_6"><a xlink:href="http://www.w3.org/ns/prov#type" xlink:title="&lt;TABLE&gt;">
<text text-anchor="start" x="276" y="-384" font-family="Times,serif" font-size="10.00">prov:type</text>
</a>
</g>
<text text-anchor="start" x="317.965" y="-384" font-family="Times,serif" font-size="10.00">seis_prov:waveform_trace</text>
</g>
<!-- ann3&#45;&gt;n3 -->
<g id="edge5" class="edge"><title>ann3&#45;&gt;n3</title>
<path fill="none" stroke="gray" stroke-dasharray="5,2" d="M359.916,-411.201C367.578,-424.493 378.233,-442.975 386.483,-457.286"/>
</g>
<!-- n4 -->
<g id="node7" class="node"><title>n4</title>
<g id="a_node7"><a xlink:href="http://seisprov.org/seis_prov/0.1/#lp_F87SF7SF78" xlink:title="Lowpass Filter&lt;br /&gt;&lt;font color=&quot;#333333&quot; point&#45;size=&quot;10&quot;&gt;seis_prov:lp_F87SF7SF78&lt;/font&gt;">
<polygon fill="#9fb1fc" stroke="#0000ff" points="575.5,-411 452.5,-411 452.5,-375 575.5,-375 575.5,-411"/>
<text text-anchor="start" x="472.198" y="-394.8" font-family="Times,serif" font-size="14.00">Lowpass Filter</text>
<text text-anchor="start" x="460.653" y="-384" font-family="Times,serif" font-size="10.00" fill="#333333">seis_prov:lp_F87SF7SF78</text>
</a>
</g>
</g>
<!-- n4&#45;&gt;n3 -->
<g id="edge6" class="edge"><title>n4&#45;&gt;n3</title>
<path fill="none" stroke="#8b0000" d="M490.728,-411.201C474.792,-422.98 453.341,-438.835 435.19,-452.251"/>
<polygon fill="#8b0000" stroke="#8b0000" points="433.075,-449.462 427.114,-458.22 437.236,-455.091 433.075,-449.462"/>
<text text-anchor="middle" x="472.165" y="-431" font-family="Times,serif" font-size="10.00" fill="red">used</text>
</g>
<!-- ann4 -->
<g id="node8" class="node"><title>ann4</title>
<polygon fill="none" stroke="gray" points="560,-329 332,-329 332,-247 566,-247 566,-323 560,-329"/>
<polyline fill="none" stroke="gray" points="560,-329 560,-323 "/>
<polyline fill="none" stroke="gray" points="566,-323 560,-323 "/>
<g id="a_node8_7"><a xlink:href="http://www.w3.org/ns/prov#label" xlink:title="&lt;TABLE&gt;">
<text text-anchor="start" x="342" y="-315" font-family="Times,serif" font-size="10.00">prov:label</text>
</a>
</g>
<text text-anchor="start" x="459" y="-315" font-family="Times,serif" font-size="10.00">Lowpass Filter</text>
<g id="a_node8_8"><a xlink:href="http://www.w3.org/ns/prov#type" xlink:title="&lt;TABLE&gt;">
<text text-anchor="start" x="342" y="-303" font-family="Times,serif" font-size="10.00">prov:type</text>
</a>
</g>
<text text-anchor="start" x="458.892" y="-303" font-family="Times,serif" font-size="10.00">seis_prov:lowpass_filter</text>
<g id="a_node8_9"><a xlink:href="http://seisprov.org/seis_prov/0.1/#corner_frequency" xlink:title="&lt;TABLE&gt;">
<text text-anchor="start" x="342" y="-291" font-family="Times,serif" font-size="10.00">seis_prov:corner_frequency</text>
</a>
</g>
<text text-anchor="start" x="459" y="-291" font-family="Times,serif" font-size="10.00">10.0</text>
<g id="a_node8_10"><a xlink:href="http://seisprov.org/seis_prov/0.1/#filter_order" xlink:title="&lt;TABLE&gt;">
<text text-anchor="start" x="342" y="-279" font-family="Times,serif" font-size="10.00">seis_prov:filter_order</text>
</a>
</g>
<text text-anchor="start" x="459" y="-279" font-family="Times,serif" font-size="10.00">4</text>
<g id="a_node8_11"><a xlink:href="http://seisprov.org/seis_prov/0.1/#filter_type" xlink:title="&lt;TABLE&gt;">
<text text-anchor="start" x="342" y="-267" font-family="Times,serif" font-size="10.00">seis_prov:filter_type</text>
</a>
</g>
<text text-anchor="start" x="459" y="-267" font-family="Times,serif" font-size="10.00">Butterworth</text>
<g id="a_node8_12"><a xlink:href="http://seisprov.org/seis_prov/0.1/#number_of_passes" xlink:title="&lt;TABLE&gt;">
<text text-anchor="start" x="341.731" y="-255" font-family="Times,serif" font-size="10.00">seis_prov:number_of_passes</text>
</a>
</g>
<text text-anchor="start" x="459" y="-255" font-family="Times,serif" font-size="10.00">1</text>
</g>
<!-- ann4&#45;&gt;n4 -->
<g id="edge7" class="edge"><title>ann4&#45;&gt;n4</title>
<path fill="none" stroke="gray" stroke-dasharray="5,2" d="M474.317,-329.117C484.369,-345.046 495.386,-362.505 503.256,-374.975"/>
</g>
<!-- n5 -->
<g id="node9" class="node"><title>n5</title>
<g id="a_node9"><a xlink:href="http://seisprov.org/seis_prov/0.1/#wf_378F8KS8KD" xlink:title="Waveform Trace&lt;br /&gt;&lt;font color=&quot;#333333&quot; point&#45;size=&quot;10&quot;&gt;seis_prov:wf_378F8KS8KD&lt;/font&gt;">
<ellipse fill="#fffc87" stroke="#808080" cx="676" cy="-288" rx="92.4823" ry="22.7556"/>
<text text-anchor="start" x="629.317" y="-289.8" font-family="Times,serif" font-size="14.00">Waveform Trace</text>
<text text-anchor="start" x="618.776" y="-279" font-family="Times,serif" font-size="10.00" fill="#333333">seis_prov:wf_378F8KS8KD</text>
</a>
</g>
</g>
<!-- n5&#45;&gt;n4 -->
<g id="edge8" class="edge"><title>n5&#45;&gt;n4</title>
<path fill="none" stroke="darkgreen" d="M643.994,-309.349C616.786,-326.649 577.764,-351.459 549.581,-369.377"/>
<polygon fill="darkgreen" stroke="darkgreen" points="547.401,-366.616 540.84,-374.935 551.157,-372.523 547.401,-366.616"/>
<text text-anchor="middle" x="614.153" y="-349" font-family="Times,serif" font-size="10.00" fill="darkgreen">wasGeneratedBy</text>
</g>
<!-- ann5 -->
<g id="node10" class="node"><title>ann5</title>
<polygon fill="none" stroke="gray" points="705,-201 543,-201 543,-165 711,-165 711,-195 705,-201"/>
<polyline fill="none" stroke="gray" points="705,-201 705,-195 "/>
<polyline fill="none" stroke="gray" points="711,-195 705,-195 "/>
<g id="a_node10_13"><a xlink:href="http://www.w3.org/ns/prov#label" xlink:title="&lt;TABLE&gt;">
<text text-anchor="start" x="552.729" y="-186" font-family="Times,serif" font-size="10.00">prov:label</text>
</a>
</g>
<text text-anchor="start" x="595" y="-186" font-family="Times,serif" font-size="10.00">Waveform Trace</text>
<g id="a_node10_14"><a xlink:href="http://www.w3.org/ns/prov#type" xlink:title="&lt;TABLE&gt;">
<text text-anchor="start" x="553" y="-174" font-family="Times,serif" font-size="10.00">prov:type</text>
</a>
</g>
<text text-anchor="start" x="594.965" y="-174" font-family="Times,serif" font-size="10.00">seis_prov:waveform_trace</text>
</g>
<!-- ann5&#45;&gt;n5 -->
<g id="edge9" class="edge"><title>ann5&#45;&gt;n5</title>
<path fill="none" stroke="gray" stroke-dasharray="5,2" d="M635.091,-201.008C643.464,-218.607 656.567,-246.151 665.679,-265.306"/>
</g>
<!-- n6 -->
<g id="node11" class="node"><title>n6</title>
<g id="a_node11"><a xlink:href="http://seisprov.org/seis_prov/0.1/#cd_F87SF7SF78" xlink:title="Decimate&lt;br /&gt;&lt;font color=&quot;#333333&quot; point&#45;size=&quot;10&quot;&gt;seis_prov:cd_F87SF7SF78&lt;/font&gt;">
<polygon fill="#9fb1fc" stroke="#0000ff" points="853.355,-201 728.645,-201 728.645,-165 853.355,-165 853.355,-201"/>
<text text-anchor="start" x="764.183" y="-184.8" font-family="Times,serif" font-size="14.00">Decimate</text>
<text text-anchor="start" x="736.823" y="-174" font-family="Times,serif" font-size="10.00" fill="#333333">seis_prov:cd_F87SF7SF78</text>
</a>
</g>
</g>
<!-- n6&#45;&gt;n5 -->
<g id="edge10" class="edge"><title>n6&#45;&gt;n5</title>
<path fill="none" stroke="#8b0000" d="M772.01,-201.008C754.361,-216.816 727.753,-240.648 707.02,-259.217"/>
<polygon fill="#8b0000" stroke="#8b0000" points="704.507,-256.769 699.393,-266.048 709.177,-261.983 704.507,-256.769"/>
<text text-anchor="middle" x="759.165" y="-221" font-family="Times,serif" font-size="10.00" fill="red">used</text>
</g>
<!-- ann6 -->
<g id="node12" class="node"><title>ann6</title>
<polygon fill="none" stroke="gray" points="809.5,-119 652.5,-119 652.5,-73 815.5,-73 815.5,-113 809.5,-119"/>
<polyline fill="none" stroke="gray" points="809.5,-119 809.5,-113 "/>
<polyline fill="none" stroke="gray" points="815.5,-113 809.5,-113 "/>
<g id="a_node12_15"><a xlink:href="http://www.w3.org/ns/prov#label" xlink:title="&lt;TABLE&gt;">
<text text-anchor="start" x="663" y="-105" font-family="Times,serif" font-size="10.00">prov:label</text>
</a>
</g>
<text text-anchor="start" x="729" y="-105" font-family="Times,serif" font-size="10.00">Decimate</text>
<g id="a_node12_16"><a xlink:href="http://www.w3.org/ns/prov#type" xlink:title="&lt;TABLE&gt;">
<text text-anchor="start" x="663" y="-93" font-family="Times,serif" font-size="10.00">prov:type</text>
</a>
</g>
<text text-anchor="start" x="728.901" y="-93" font-family="Times,serif" font-size="10.00">seis_prov:decimate</text>
<g id="a_node12_17"><a xlink:href="http://seisprov.org/seis_prov/0.1/#factor" xlink:title="&lt;TABLE&gt;">
<text text-anchor="start" x="662.788" y="-81" font-family="Times,serif" font-size="10.00">seis_prov:factor</text>
</a>
</g>
<text text-anchor="start" x="729" y="-81" font-family="Times,serif" font-size="10.00">2</text>
</g>
<!-- ann6&#45;&gt;n6 -->
<g id="edge11" class="edge"><title>ann6&#45;&gt;n6</title>
<path fill="none" stroke="gray" stroke-dasharray="5,2" d="M748.976,-119.333C758.542,-133.597 770.753,-151.807 779.544,-164.917"/>
</g>
<!-- n7 -->
<g id="node13" class="node"><title>n7</title>
<g id="a_node13"><a xlink:href="http://seisprov.org/seis_prov/0.1/#wf_JUDE89DU8L" xlink:title="Waveform Trace&lt;br /&gt;&lt;font color=&quot;#333333&quot; point&#45;size=&quot;10&quot;&gt;seis_prov:wf_JUDE89DU8L&lt;/font&gt;">
<ellipse fill="#fffc87" stroke="#808080" cx="928" cy="-96" rx="94" ry="22.7556"/>
<text text-anchor="start" x="881.317" y="-97.8" font-family="Times,serif" font-size="14.00">Waveform Trace</text>
<text text-anchor="start" x="869.672" y="-87" font-family="Times,serif" font-size="10.00" fill="#333333">seis_prov:wf_JUDE89DU8L</text>
</a>
</g>
</g>
<!-- n7&#45;&gt;n6 -->
<g id="edge12" class="edge"><title>n7&#45;&gt;n6</title>
<path fill="none" stroke="darkgreen" d="M895.185,-117.36C874.682,-130.08 848.262,-146.472 827.158,-159.566"/>
<polygon fill="darkgreen" stroke="darkgreen" points="825.124,-156.709 818.472,-164.955 828.814,-162.657 825.124,-156.709"/>
<text text-anchor="middle" x="893.153" y="-139" font-family="Times,serif" font-size="10.00" fill="darkgreen">wasGeneratedBy</text>
</g>
<!-- ann7 -->
<g id="node14" class="node"><title>ann7</title>
<polygon fill="none" stroke="gray" points="1006,-36 844,-36 844,-0 1012,-0 1012,-30 1006,-36"/>
<polyline fill="none" stroke="gray" points="1006,-36 1006,-30 "/>
<polyline fill="none" stroke="gray" points="1012,-30 1006,-30 "/>
<g id="a_node14_18"><a xlink:href="http://www.w3.org/ns/prov#label" xlink:title="&lt;TABLE&gt;">
<text text-anchor="start" x="853.729" y="-21" font-family="Times,serif" font-size="10.00">prov:label</text>
</a>
</g>
<text text-anchor="start" x="896" y="-21" font-family="Times,serif" font-size="10.00">Waveform Trace</text>
<g id="a_node14_19"><a xlink:href="http://www.w3.org/ns/prov#type" xlink:title="&lt;TABLE&gt;">
<text text-anchor="start" x="854" y="-9" font-family="Times,serif" font-size="10.00">prov:type</text>
</a>
</g>
<text text-anchor="start" x="895.965" y="-9" font-family="Times,serif" font-size="10.00">seis_prov:waveform_trace</text>
</g>
<!-- ann7&#45;&gt;n7 -->
<g id="edge13" class="edge"><title>ann7&#45;&gt;n7</title>
<path fill="none" stroke="gray" stroke-dasharray="5,2" d="M928,-36.2456C928,-47.1944 928,-61.4592 928,-73.1912"/>
</g>
</g>
</svg>
