<?xml version="1.0" encoding="UTF-8" standalone="no"?>
<!DOCTYPE svg PUBLIC "-//W3C//DTD SVG 1.1//EN"
 "http://www.w3.org/Graphics/SVG/1.1/DTD/svg11.dtd">
<!-- Generated by graphviz version 2.38.0 (20140413.2041)
 -->
<!-- Title: G Pages: 1 -->
<svg width="184pt" height="116pt"
 viewBox="0.00 0.00 184.00 116.00" xmlns="http://www.w3.org/2000/svg" xmlns:xlink="http://www.w3.org/1999/xlink">
<g id="graph0" class="graph" transform="scale(1 1) rotate(0) translate(4 112)">
<title>G</title>
<polygon fill="white" stroke="none" points="-4,4 -4,-112 180,-112 180,4 -4,4"/>
<!-- n1 -->
<g id="node1" class="node"><title>n1</title>
<g id="a_node1"><a xlink:href="http://seisprov.org/seis_prov/0.1/#001_sr_60154c3" xlink:title="Simulate Response&lt;br /&gt;&lt;font color=&quot;#333333&quot; point&#45;size=&quot;10&quot;&gt;seis_prov:001_sr_60154c3&lt;/font&gt;">
<polygon fill="#9fb1fc" stroke="#0000ff" points="150,-108 26,-108 26,-72 150,-72 150,-108"/>
<text text-anchor="start" x="34.5327" y="-91.8" font-family="Times,serif" font-size="14.00">Simulate Response</text>
<text text-anchor="start" x="34.1157" y="-81" font-family="Times,serif" font-size="10.00" fill="#333333">seis_prov:001_sr_60154c3</text>
</a>
</g>
</g>
<!-- ann1 -->
<g id="node2" class="node"><title>ann1</title>
<polygon fill="none" stroke="gray" points="170,-36 0,-36 0,-0 176,-0 176,-30 170,-36"/>
<polyline fill="none" stroke="gray" points="170,-36 170,-30 "/>
<polyline fill="none" stroke="gray" points="176,-30 170,-30 "/>
<g id="a_node2_0"><a xlink:href="http://www.w3.org/ns/prov#label" xlink:title="&lt;TABLE&gt;">
<text text-anchor="start" x="9.729" y="-21" font-family="Times,serif" font-size="10.00">prov:label</text>
</a>
</g>
<text text-anchor="start" x="52" y="-21" font-family="Times,serif" font-size="10.00">Simulate Response</text>
<g id="a_node2_1"><a xlink:href="http://www.w3.org/ns/prov#type" xlink:title="&lt;TABLE&gt;">
<text text-anchor="start" x="10" y="-9" font-family="Times,serif" font-size="10.00">prov:type</text>
</a>
</g>
<text text-anchor="start" x="51.5098" y="-9" font-family="Times,serif" font-size="10.00">seis_prov:simulate_response</text>
</g>
<!-- ann1&#45;&gt;n1 -->
<g id="edge1" class="edge"><title>ann1&#45;&gt;n1</title>
<path fill="none" stroke="gray" stroke-dasharray="5,2" d="M88,-36.3034C88,-47.1537 88,-61.0833 88,-71.8957"/>
</g>
</g>
</svg>
