<?xml version="1.0" encoding="UTF-8" standalone="no"?>
<!DOCTYPE svg PUBLIC "-//W3C//DTD SVG 1.1//EN"
 "http://www.w3.org/Graphics/SVG/1.1/DTD/svg11.dtd">
<!-- Generated by graphviz version 2.26.3 (20100126.1600)
 -->
<!-- Title: G Pages: 1 -->
<svg width="160pt" height="118pt"
 viewBox="0.00 0.00 160.00 118.00" xmlns="http://www.w3.org/2000/svg" xmlns:xlink="http://www.w3.org/1999/xlink">
<g id="graph1" class="graph" transform="scale(1 1) rotate(0) translate(4 114)">
<title>G</title>
<polygon fill="white" stroke="white" points="-4,5 -4,-114 157,-114 157,5 -4,5"/>
<!-- n1 -->
<g id="node1" class="node"><title>n1</title>
<a xlink:href="http://seisprov.org/seis_prov/0.1/#sp001_rt_41c89e3" xlink:title="Rotate&lt;br /&gt;&lt;font color=&quot;#333333&quot; point&#45;size=&quot;10&quot;&gt;seis_prov:sp001_rt_41c89e3&lt;/font&gt;">
<polygon fill="#9fb1fc" stroke="#0000ff" points="152,-109.5 7.10543e-14,-109.5 0,-72.5 152,-72.5 152,-109.5"/>
<text text-anchor="start" x="53" y="-95.2333" font-family="Times Roman,serif" font-size="14.00">Rotate</text>
<text text-anchor="start" x="8" y="-81.3667" font-family="Times Roman,serif" font-size="10.00" fill="#333333">seis_prov:sp001_rt_41c89e3</text>
</a>
</g>
<!-- ann1 -->
<g id="node2" class="node"><title>ann1</title>
<polygon fill="none" stroke="gray" points="143,-36 3,-36 3,-1.77636e-14 149,-3.55271e-15 149,-30 143,-36"/>
<polyline fill="none" stroke="gray" points="143,-36 143,-30 "/>
<polyline fill="none" stroke="gray" points="149,-30 143,-30 "/>
<a xlink:href="http://www.w3.org/ns/prov#label" xlink:title="&lt;TABLE&gt;">
<text text-anchor="start" x="13" y="-21.1667" font-family="Times Roman,serif" font-size="10.00">prov:label</text>
</a>
<text text-anchor="start" x="62" y="-21.1667" font-family="Times Roman,serif" font-size="10.00">Rotate</text>
<a xlink:href="http://www.w3.org/ns/prov#type" xlink:title="&lt;TABLE&gt;">
<text text-anchor="start" x="13" y="-8.66667" font-family="Times Roman,serif" font-size="10.00">prov:type</text>
</a>
<text text-anchor="start" x="62" y="-8.66667" font-family="Times Roman,serif" font-size="10.00">seis_prov:rotate</text>
</g>
<!-- ann1&#45;&gt;n1 -->
<g id="edge2" class="edge"><title>ann1&#45;&gt;n1</title>
<path fill="none" stroke="gray" stroke-dasharray="5,2" d="M76,-36.0449C76,-47.107 76,-61.238 76,-72.4005"/>
</g>
</g>
</svg>
