<?xml version="1.0" encoding="UTF-8" standalone="no"?>
<!DOCTYPE svg PUBLIC "-//W3C//DTD SVG 1.1//EN"
 "http://www.w3.org/Graphics/SVG/1.1/DTD/svg11.dtd">
<!-- Generated by graphviz version 2.26.3 (20100126.1600)
 -->
<!-- Title: G Pages: 1 -->
<svg width="1243pt" height="736pt"
 viewBox="0.00 0.00 1243.00 736.00" xmlns="http://www.w3.org/2000/svg" xmlns:xlink="http://www.w3.org/1999/xlink">
<g id="graph1" class="graph" transform="scale(1 1) rotate(0) translate(4 732)">
<title>G</title>
<polygon fill="white" stroke="white" points="-4,5 -4,-732 1240,-732 1240,5 -4,5"/>
<!-- n1 -->
<g id="node1" class="node"><title>n1</title>
<a xlink:href="http://seisprov.org/seis_prov/0.1/#sp001_wf_0439jdf" xlink:title="Waveform Trace&lt;br /&gt;&lt;font color=&quot;#333333&quot; point&#45;size=&quot;10&quot;&gt;seis_prov:sp001_wf_0439jdf&lt;/font&gt;">
<ellipse fill="#fffc87" stroke="#808080" cx="153" cy="-702" rx="106.066" ry="26.163"/>
<text text-anchor="start" x="97" y="-706.233" font-family="Times Roman,serif" font-size="14.00">Waveform Trace</text>
<text text-anchor="start" x="86.5" y="-692.367" font-family="Times Roman,serif" font-size="10.00" fill="#333333">seis_prov:sp001_wf_0439jdf</text>
</a>
</g>
<!-- ann1 -->
<g id="node2" class="node"><title>ann1</title>
<polygon fill="none" stroke="gray" points="186,-625 7.10543e-14,-625 0,-589 192,-589 192,-619 186,-625"/>
<polyline fill="none" stroke="gray" points="186,-625 186,-619 "/>
<polyline fill="none" stroke="gray" points="192,-619 186,-619 "/>
<a xlink:href="http://www.w3.org/ns/prov#label" xlink:title="&lt;TABLE&gt;">
<text text-anchor="start" x="10" y="-610.167" font-family="Times Roman,serif" font-size="10.00">prov:label</text>
</a>
<text text-anchor="start" x="59" y="-610.167" font-family="Times Roman,serif" font-size="10.00">Waveform Trace</text>
<a xlink:href="http://www.w3.org/ns/prov#type" xlink:title="&lt;TABLE&gt;">
<text text-anchor="start" x="10" y="-597.667" font-family="Times Roman,serif" font-size="10.00">prov:type</text>
</a>
<text text-anchor="start" x="59" y="-597.667" font-family="Times Roman,serif" font-size="10.00">seis_prov:waveform_trace</text>
</g>
<!-- ann1&#45;&gt;n1 -->
<g id="edge2" class="edge"><title>ann1&#45;&gt;n1</title>
<path fill="none" stroke="gray" stroke-dasharray="5,2" d="M106.99,-625.317C115.66,-639.767 127.86,-660.1 137.519,-676.198"/>
</g>
<!-- n2 -->
<g id="node3" class="node"><title>n2</title>
<a xlink:href="http://seisprov.org/seis_prov/0.1/#sp002_dt_f87sf7sf78" xlink:title="Detrend&lt;br /&gt;&lt;font color=&quot;#333333&quot; point&#45;size=&quot;10&quot;&gt;seis_prov:sp002_dt_f87sf7sf78&lt;/font&gt;">
<polygon fill="#9fb1fc" stroke="#0000ff" points="374,-625.5 210,-625.5 210,-588.5 374,-588.5 374,-625.5"/>
<text text-anchor="start" x="263" y="-611.233" font-family="Times Roman,serif" font-size="14.00">Detrend</text>
<text text-anchor="start" x="218.5" y="-597.367" font-family="Times Roman,serif" font-size="10.00" fill="#333333">seis_prov:sp002_dt_f87sf7sf78</text>
</a>
</g>
<!-- n2&#45;&gt;n1 -->
<g id="edge16" class="edge"><title>n2&#45;&gt;n1</title>
<path fill="none" stroke="#8b0000" d="M264.869,-625.542C245.674,-638.662 219.505,-656.547 197.304,-671.72"/>
<polygon fill="#8b0000" stroke="#8b0000" points="195.293,-668.855 189.012,-677.387 199.243,-674.634 195.293,-668.855"/>
<text text-anchor="middle" x="246" y="-648.5" font-family="Times Roman,serif" font-size="10.00" fill="red">used</text>
</g>
<!-- ann2 -->
<g id="node4" class="node"><title>ann2</title>
<polygon fill="none" stroke="gray" points="338,-535.5 94,-535.5 94,-488.5 344,-488.5 344,-529.5 338,-535.5"/>
<polyline fill="none" stroke="gray" points="338,-535.5 338,-529.5 "/>
<polyline fill="none" stroke="gray" points="344,-529.5 338,-529.5 "/>
<a xlink:href="http://www.w3.org/ns/prov#label" xlink:title="&lt;TABLE&gt;">
<text text-anchor="start" x="104" y="-521.167" font-family="Times Roman,serif" font-size="10.00">prov:label</text>
</a>
<text text-anchor="start" x="249" y="-521.167" font-family="Times Roman,serif" font-size="10.00">Detrend</text>
<a xlink:href="http://www.w3.org/ns/prov#type" xlink:title="&lt;TABLE&gt;">
<text text-anchor="start" x="104" y="-508.667" font-family="Times Roman,serif" font-size="10.00">prov:type</text>
</a>
<text text-anchor="start" x="249" y="-508.667" font-family="Times Roman,serif" font-size="10.00">seis_prov:detrend</text>
<a xlink:href="http://seisprov.org/seis_prov/0.1/#detrending_method" xlink:title="&lt;TABLE&gt;">
<text text-anchor="start" x="104" y="-496.667" font-family="Times Roman,serif" font-size="10.00">seis_prov:detrending_method</text>
</a>
<text text-anchor="start" x="249" y="-496.667" font-family="Times Roman,serif" font-size="10.00">demean</text>
</g>
<!-- ann2&#45;&gt;n2 -->
<g id="edge4" class="edge"><title>ann2&#45;&gt;n2</title>
<path fill="none" stroke="gray" stroke-dasharray="5,2" d="M237.421,-535.973C249.923,-552.243 266.212,-573.44 277.73,-588.429"/>
</g>
<!-- n3 -->
<g id="node5" class="node"><title>n3</title>
<a xlink:href="http://seisprov.org/seis_prov/0.1/#sp003_wf_js83hf34aj" xlink:title="Waveform Trace&lt;br /&gt;&lt;font color=&quot;#333333&quot; point&#45;size=&quot;10&quot;&gt;seis_prov:sp003_wf_js83hf34aj&lt;/font&gt;">
<ellipse fill="#fffc87" stroke="#808080" cx="477" cy="-512" rx="114.759" ry="26.163"/>
<text text-anchor="start" x="421" y="-516.233" font-family="Times Roman,serif" font-size="14.00">Waveform Trace</text>
<text text-anchor="start" x="404" y="-502.367" font-family="Times Roman,serif" font-size="10.00" fill="#333333">seis_prov:sp003_wf_js83hf34aj</text>
</a>
</g>
<!-- n3&#45;&gt;n2 -->
<g id="edge22" class="edge"><title>n3&#45;&gt;n2</title>
<path fill="none" stroke="darkgreen" d="M430.317,-535.973C401.851,-550.59 365.64,-569.185 337.409,-583.682"/>
<polygon fill="darkgreen" stroke="darkgreen" points="335.461,-580.748 328.164,-588.429 338.659,-586.975 335.461,-580.748"/>
<text text-anchor="middle" x="431" y="-560.5" font-family="Times Roman,serif" font-size="10.00" fill="darkgreen">wasGeneratedBy</text>
</g>
<!-- ann3 -->
<g id="node6" class="node"><title>ann3</title>
<polygon fill="none" stroke="gray" points="510,-435 324,-435 324,-399 516,-399 516,-429 510,-435"/>
<polyline fill="none" stroke="gray" points="510,-435 510,-429 "/>
<polyline fill="none" stroke="gray" points="516,-429 510,-429 "/>
<a xlink:href="http://www.w3.org/ns/prov#label" xlink:title="&lt;TABLE&gt;">
<text text-anchor="start" x="334" y="-420.167" font-family="Times Roman,serif" font-size="10.00">prov:label</text>
</a>
<text text-anchor="start" x="383" y="-420.167" font-family="Times Roman,serif" font-size="10.00">Waveform Trace</text>
<a xlink:href="http://www.w3.org/ns/prov#type" xlink:title="&lt;TABLE&gt;">
<text text-anchor="start" x="334" y="-407.667" font-family="Times Roman,serif" font-size="10.00">prov:type</text>
</a>
<text text-anchor="start" x="383" y="-407.667" font-family="Times Roman,serif" font-size="10.00">seis_prov:waveform_trace</text>
</g>
<!-- ann3&#45;&gt;n3 -->
<g id="edge6" class="edge"><title>ann3&#45;&gt;n3</title>
<path fill="none" stroke="gray" stroke-dasharray="5,2" d="M430.99,-435.317C439.66,-449.767 451.86,-470.1 461.519,-486.198"/>
</g>
<!-- n4 -->
<g id="node7" class="node"><title>n4</title>
<a xlink:href="http://seisprov.org/seis_prov/0.1/#sp004_lp_f87sf7sf78" xlink:title="Lowpass Filter&lt;br /&gt;&lt;font color=&quot;#333333&quot; point&#45;size=&quot;10&quot;&gt;seis_prov:sp004_lp_f87sf7sf78&lt;/font&gt;">
<polygon fill="#9fb1fc" stroke="#0000ff" points="696,-435.5 534,-435.5 534,-398.5 696,-398.5 696,-435.5"/>
<text text-anchor="start" x="565" y="-421.233" font-family="Times Roman,serif" font-size="14.00">Lowpass Filter</text>
<text text-anchor="start" x="542.5" y="-407.367" font-family="Times Roman,serif" font-size="10.00" fill="#333333">seis_prov:sp004_lp_f87sf7sf78</text>
</a>
</g>
<!-- n4&#45;&gt;n3 -->
<g id="edge18" class="edge"><title>n4&#45;&gt;n3</title>
<path fill="none" stroke="#8b0000" d="M588.065,-435.542C569.16,-448.556 543.444,-466.26 521.517,-481.354"/>
<polygon fill="#8b0000" stroke="#8b0000" points="519.263,-478.657 513.011,-487.21 523.232,-484.422 519.263,-478.657"/>
<text text-anchor="middle" x="570" y="-458.5" font-family="Times Roman,serif" font-size="10.00" fill="red">used</text>
</g>
<!-- ann4 -->
<g id="node8" class="node"><title>ann4</title>
<polygon fill="none" stroke="gray" points="669,-347.5 401,-347.5 401,-264.5 675,-264.5 675,-341.5 669,-347.5"/>
<polyline fill="none" stroke="gray" points="669,-347.5 669,-341.5 "/>
<polyline fill="none" stroke="gray" points="675,-341.5 669,-341.5 "/>
<a xlink:href="http://www.w3.org/ns/prov#label" xlink:title="&lt;TABLE&gt;">
<text text-anchor="start" x="411" y="-333.167" font-family="Times Roman,serif" font-size="10.00">prov:label</text>
</a>
<text text-anchor="start" x="553" y="-333.167" font-family="Times Roman,serif" font-size="10.00">Lowpass Filter</text>
<a xlink:href="http://www.w3.org/ns/prov#type" xlink:title="&lt;TABLE&gt;">
<text text-anchor="start" x="411" y="-320.667" font-family="Times Roman,serif" font-size="10.00">prov:type</text>
</a>
<text text-anchor="start" x="553" y="-320.667" font-family="Times Roman,serif" font-size="10.00">seis_prov:lowpass_filter</text>
<a xlink:href="http://seisprov.org/seis_prov/0.1/#corner_frequency" xlink:title="&lt;TABLE&gt;">
<text text-anchor="start" x="411" y="-308.667" font-family="Times Roman,serif" font-size="10.00">seis_prov:corner_frequency</text>
</a>
<text text-anchor="start" x="553" y="-308.667" font-family="Times Roman,serif" font-size="10.00">10.0</text>
<a xlink:href="http://seisprov.org/seis_prov/0.1/#filter_order" xlink:title="&lt;TABLE&gt;">
<text text-anchor="start" x="411" y="-296.667" font-family="Times Roman,serif" font-size="10.00">seis_prov:filter_order</text>
</a>
<text text-anchor="start" x="553" y="-296.667" font-family="Times Roman,serif" font-size="10.00">4</text>
<a xlink:href="http://seisprov.org/seis_prov/0.1/#filter_type" xlink:title="&lt;TABLE&gt;">
<text text-anchor="start" x="411" y="-284.667" font-family="Times Roman,serif" font-size="10.00">seis_prov:filter_type</text>
</a>
<text text-anchor="start" x="553" y="-284.667" font-family="Times Roman,serif" font-size="10.00">Butterworth</text>
<a xlink:href="http://seisprov.org/seis_prov/0.1/#number_of_passes" xlink:title="&lt;TABLE&gt;">
<text text-anchor="start" x="411" y="-272.667" font-family="Times Roman,serif" font-size="10.00">seis_prov:number_of_passes</text>
</a>
<text text-anchor="start" x="553" y="-272.667" font-family="Times Roman,serif" font-size="10.00">1</text>
</g>
<!-- ann4&#45;&gt;n4 -->
<g id="edge8" class="edge"><title>ann4&#45;&gt;n4</title>
<path fill="none" stroke="gray" stroke-dasharray="5,2" d="M566.891,-347.648C579.01,-365.119 592.487,-384.546 602.086,-398.384"/>
</g>
<!-- n5 -->
<g id="node9" class="node"><title>n5</title>
<a xlink:href="http://seisprov.org/seis_prov/0.1/#sp005_wf_378f8ks8kd" xlink:title="Waveform Trace&lt;br /&gt;&lt;font color=&quot;#333333&quot; point&#45;size=&quot;10&quot;&gt;seis_prov:sp005_wf_378f8ks8kd&lt;/font&gt;">
<ellipse fill="#fffc87" stroke="#808080" cx="812" cy="-306" rx="119.001" ry="26.163"/>
<text text-anchor="start" x="756" y="-310.233" font-family="Times Roman,serif" font-size="14.00">Waveform Trace</text>
<text text-anchor="start" x="736" y="-296.367" font-family="Times Roman,serif" font-size="10.00" fill="#333333">seis_prov:sp005_wf_378f8ks8kd</text>
</a>
</g>
<!-- n5&#45;&gt;n4 -->
<g id="edge24" class="edge"><title>n5&#45;&gt;n4</title>
<path fill="none" stroke="darkgreen" d="M768.768,-330.359C735.535,-349.084 689.892,-374.802 656.978,-393.348"/>
<polygon fill="darkgreen" stroke="darkgreen" points="655.046,-390.418 648.052,-398.377 658.483,-396.517 655.046,-390.418"/>
<text text-anchor="middle" x="742" y="-370.5" font-family="Times Roman,serif" font-size="10.00" fill="darkgreen">wasGeneratedBy</text>
</g>
<!-- ann5 -->
<g id="node10" class="node"><title>ann5</title>
<polygon fill="none" stroke="gray" points="845,-213 659,-213 659,-177 851,-177 851,-207 845,-213"/>
<polyline fill="none" stroke="gray" points="845,-213 845,-207 "/>
<polyline fill="none" stroke="gray" points="851,-207 845,-207 "/>
<a xlink:href="http://www.w3.org/ns/prov#label" xlink:title="&lt;TABLE&gt;">
<text text-anchor="start" x="669" y="-198.167" font-family="Times Roman,serif" font-size="10.00">prov:label</text>
</a>
<text text-anchor="start" x="718" y="-198.167" font-family="Times Roman,serif" font-size="10.00">Waveform Trace</text>
<a xlink:href="http://www.w3.org/ns/prov#type" xlink:title="&lt;TABLE&gt;">
<text text-anchor="start" x="669" y="-185.667" font-family="Times Roman,serif" font-size="10.00">prov:type</text>
</a>
<text text-anchor="start" x="718" y="-185.667" font-family="Times Roman,serif" font-size="10.00">seis_prov:waveform_trace</text>
</g>
<!-- ann5&#45;&gt;n5 -->
<g id="edge10" class="edge"><title>ann5&#45;&gt;n5</title>
<path fill="none" stroke="gray" stroke-dasharray="5,2" d="M764.412,-213.329C773.709,-231.433 788.02,-259.302 798.521,-279.752"/>
</g>
<!-- n6 -->
<g id="node11" class="node"><title>n6</title>
<a xlink:href="http://seisprov.org/seis_prov/0.1/#sp006_dc_f87sf7sf78" xlink:title="Decimate&lt;br /&gt;&lt;font color=&quot;#333333&quot; point&#45;size=&quot;10&quot;&gt;seis_prov:sp006_dc_f87sf7sf78&lt;/font&gt;">
<polygon fill="#9fb1fc" stroke="#0000ff" points="1033,-213.5 869,-213.5 869,-176.5 1033,-176.5 1033,-213.5"/>
<text text-anchor="start" x="918" y="-199.233" font-family="Times Roman,serif" font-size="14.00">Decimate</text>
<text text-anchor="start" x="877" y="-185.367" font-family="Times Roman,serif" font-size="10.00" fill="#333333">seis_prov:sp006_dc_f87sf7sf78</text>
</a>
</g>
<!-- n6&#45;&gt;n5 -->
<g id="edge20" class="edge"><title>n6&#45;&gt;n5</title>
<path fill="none" stroke="#8b0000" d="M927.735,-213.579C906.973,-230.158 876.138,-254.782 851.515,-274.445"/>
<polygon fill="#8b0000" stroke="#8b0000" points="849.057,-271.929 843.427,-280.904 853.425,-277.399 849.057,-271.929"/>
<text text-anchor="middle" x="914" y="-236.5" font-family="Times Roman,serif" font-size="10.00" fill="red">used</text>
</g>
<!-- ann6 -->
<g id="node12" class="node"><title>ann6</title>
<polygon fill="none" stroke="gray" points="975,-123.5 789,-123.5 789,-76.5 981,-76.5 981,-117.5 975,-123.5"/>
<polyline fill="none" stroke="gray" points="975,-123.5 975,-117.5 "/>
<polyline fill="none" stroke="gray" points="981,-117.5 975,-117.5 "/>
<a xlink:href="http://www.w3.org/ns/prov#label" xlink:title="&lt;TABLE&gt;">
<text text-anchor="start" x="799" y="-109.167" font-family="Times Roman,serif" font-size="10.00">prov:label</text>
</a>
<text text-anchor="start" x="878" y="-109.167" font-family="Times Roman,serif" font-size="10.00">Decimate</text>
<a xlink:href="http://www.w3.org/ns/prov#type" xlink:title="&lt;TABLE&gt;">
<text text-anchor="start" x="799" y="-96.6667" font-family="Times Roman,serif" font-size="10.00">prov:type</text>
</a>
<text text-anchor="start" x="878" y="-96.6667" font-family="Times Roman,serif" font-size="10.00">seis_prov:decimate</text>
<a xlink:href="http://seisprov.org/seis_prov/0.1/#factor" xlink:title="&lt;TABLE&gt;">
<text text-anchor="start" x="799" y="-84.6667" font-family="Times Roman,serif" font-size="10.00">seis_prov:factor</text>
</a>
<text text-anchor="start" x="878" y="-84.6667" font-family="Times Roman,serif" font-size="10.00">2</text>
</g>
<!-- ann6&#45;&gt;n6 -->
<g id="edge12" class="edge"><title>ann6&#45;&gt;n6</title>
<path fill="none" stroke="gray" stroke-dasharray="5,2" d="M901.655,-123.973C912.958,-140.243 927.685,-161.44 938.098,-176.429"/>
</g>
<!-- n7 -->
<g id="node13" class="node"><title>n7</title>
<a xlink:href="http://seisprov.org/seis_prov/0.1/#sp007_wf_jude89du8l" xlink:title="Waveform Trace&lt;br /&gt;&lt;font color=&quot;#333333&quot; point&#45;size=&quot;10&quot;&gt;seis_prov:sp007_wf_jude89du8l&lt;/font&gt;">
<ellipse fill="#fffc87" stroke="#808080" cx="1117" cy="-100" rx="118.087" ry="26.163"/>
<text text-anchor="start" x="1061" y="-104.233" font-family="Times Roman,serif" font-size="14.00">Waveform Trace</text>
<text text-anchor="start" x="1042" y="-90.3667" font-family="Times Roman,serif" font-size="10.00" fill="#333333">seis_prov:sp007_wf_jude89du8l</text>
</a>
</g>
<!-- n7&#45;&gt;n6 -->
<g id="edge26" class="edge"><title>n7&#45;&gt;n6</title>
<path fill="none" stroke="darkgreen" d="M1074.25,-124.465C1049.01,-138.909 1017.22,-157.103 992.248,-171.394"/>
<polygon fill="darkgreen" stroke="darkgreen" points="990.321,-168.464 983.38,-176.469 993.798,-174.54 990.321,-168.464"/>
<text text-anchor="middle" x="1079" y="-148.5" font-family="Times Roman,serif" font-size="10.00" fill="darkgreen">wasGeneratedBy</text>
</g>
<!-- ann7 -->
<g id="node14" class="node"><title>ann7</title>
<polygon fill="none" stroke="gray" points="1207,-36 1021,-36 1021,-1.77636e-14 1213,-3.55271e-15 1213,-30 1207,-36"/>
<polyline fill="none" stroke="gray" points="1207,-36 1207,-30 "/>
<polyline fill="none" stroke="gray" points="1213,-30 1207,-30 "/>
<a xlink:href="http://www.w3.org/ns/prov#label" xlink:title="&lt;TABLE&gt;">
<text text-anchor="start" x="1031" y="-21.1667" font-family="Times Roman,serif" font-size="10.00">prov:label</text>
</a>
<text text-anchor="start" x="1080" y="-21.1667" font-family="Times Roman,serif" font-size="10.00">Waveform Trace</text>
<a xlink:href="http://www.w3.org/ns/prov#type" xlink:title="&lt;TABLE&gt;">
<text text-anchor="start" x="1031" y="-8.66667" font-family="Times Roman,serif" font-size="10.00">prov:type</text>
</a>
<text text-anchor="start" x="1080" y="-8.66667" font-family="Times Roman,serif" font-size="10.00">seis_prov:waveform_trace</text>
</g>
<!-- ann7&#45;&gt;n7 -->
<g id="edge14" class="edge"><title>ann7&#45;&gt;n7</title>
<path fill="none" stroke="gray" stroke-dasharray="5,2" d="M1117,-36.1985C1117,-47.2394 1117,-61.5149 1117,-73.7622"/>
</g>
</g>
</svg>
