<?xml version="1.0" encoding="UTF-8" standalone="no"?>
<!DOCTYPE svg PUBLIC "-//W3C//DTD SVG 1.1//EN"
 "http://www.w3.org/Graphics/SVG/1.1/DTD/svg11.dtd">
<!-- Generated by graphviz version 2.26.3 (20100126.1600)
 -->
<!-- Title: G Pages: 1 -->
<svg width="340pt" height="130pt"
 viewBox="0.00 0.00 340.00 130.00" xmlns="http://www.w3.org/2000/svg" xmlns:xlink="http://www.w3.org/1999/xlink">
<g id="graph1" class="graph" transform="scale(1 1) rotate(0) translate(4 126)">
<title>G</title>
<polygon fill="white" stroke="white" points="-4,5 -4,-126 337,-126 337,5 -4,5"/>
<!-- n1 -->
<g id="node1" class="node"><title>n1</title>
<a xlink:href="http://seisprov.org/seis_prov/0.1/#sp001_ca_c7540fc" xlink:title="Calculate Adjoint Source&lt;br /&gt;&lt;font color=&quot;#333333&quot; point&#45;size=&quot;10&quot;&gt;seis_prov:sp001_ca_c7540fc&lt;/font&gt;">
<polygon fill="#9fb1fc" stroke="#0000ff" points="259,-121.5 73,-121.5 73,-84.5 259,-84.5 259,-121.5"/>
<text text-anchor="start" x="81.5" y="-107.233" font-family="Times Roman,serif" font-size="14.00">Calculate Adjoint Source</text>
<text text-anchor="start" x="98" y="-93.3667" font-family="Times Roman,serif" font-size="10.00" fill="#333333">seis_prov:sp001_ca_c7540fc</text>
</a>
</g>
<!-- ann1 -->
<g id="node2" class="node"><title>ann1</title>
<polygon fill="none" stroke="gray" points="326,-47.5 1.7053e-13,-47.5 0,-0.5 332,-0.5 332,-41.5 326,-47.5"/>
<polyline fill="none" stroke="gray" points="326,-47.5 326,-41.5 "/>
<polyline fill="none" stroke="gray" points="332,-41.5 326,-41.5 "/>
<a xlink:href="http://www.w3.org/ns/prov#label" xlink:title="&lt;TABLE&gt;">
<text text-anchor="start" x="10" y="-33.1667" font-family="Times Roman,serif" font-size="10.00">prov:label</text>
</a>
<text text-anchor="start" x="157" y="-33.1667" font-family="Times Roman,serif" font-size="10.00">Calculate Adjoint Source</text>
<a xlink:href="http://www.w3.org/ns/prov#type" xlink:title="&lt;TABLE&gt;">
<text text-anchor="start" x="10" y="-20.6667" font-family="Times Roman,serif" font-size="10.00">prov:type</text>
</a>
<text text-anchor="start" x="157" y="-20.6667" font-family="Times Roman,serif" font-size="10.00">seis_prov:calculate_adjoint_source</text>
<a xlink:href="http://seisprov.org/seis_prov/0.1/#adjoint_source_type" xlink:title="&lt;TABLE&gt;">
<text text-anchor="start" x="10" y="-8.66667" font-family="Times Roman,serif" font-size="10.00">seis_prov:adjoint_source_type</text>
</a>
<text text-anchor="start" x="157" y="-8.66667" font-family="Times Roman,serif" font-size="10.00">Time Frequency Phase</text>
</g>
<!-- ann1&#45;&gt;n1 -->
<g id="edge2" class="edge"><title>ann1&#45;&gt;n1</title>
<path fill="none" stroke="gray" stroke-dasharray="5,2" d="M166,-47.7026C166,-59.4285 166,-73.3781 166,-84.3328"/>
</g>
</g>
</svg>
