<?xml version="1.0" encoding="UTF-8" standalone="no"?>
<!DOCTYPE svg PUBLIC "-//W3C//DTD SVG 1.1//EN"
 "http://www.w3.org/Graphics/SVG/1.1/DTD/svg11.dtd">
<!-- Generated by graphviz version 2.38.0 (20140413.2041)
 -->
<!-- Title: G Pages: 1 -->
<svg width="205pt" height="126pt"
 viewBox="0.00 0.00 205.00 126.00" xmlns="http://www.w3.org/2000/svg" xmlns:xlink="http://www.w3.org/1999/xlink">
<g id="graph0" class="graph" transform="scale(1 1) rotate(0) translate(4 122)">
<title>G</title>
<polygon fill="white" stroke="none" points="-4,4 -4,-122 201,-122 201,4 -4,4"/>
<!-- n1 -->
<g id="node1" class="node"><title>n1</title>
<g id="a_node1"><a xlink:href="http://seisprov.org/seis_prov/0.1/#001_dc_c083058" xlink:title="Decimate&lt;br /&gt;&lt;font color=&quot;#333333&quot; point&#45;size=&quot;10&quot;&gt;seis_prov:001_dc_c083058&lt;/font&gt;">
<polygon fill="#9fb1fc" stroke="#0000ff" points="161.5,-118 35.5,-118 35.5,-82 161.5,-82 161.5,-118"/>
<text text-anchor="start" x="71.6826" y="-101.8" font-family="Times,serif" font-size="14.00">Decimate</text>
<text text-anchor="start" x="43.5073" y="-91" font-family="Times,serif" font-size="10.00" fill="#333333">seis_prov:001_dc_c083058</text>
</a>
</g>
</g>
<!-- ann1 -->
<g id="node2" class="node"><title>ann1</title>
<polygon fill="none" stroke="gray" points="191,-46 -1.42109e-14,-46 -1.42109e-14,-0 197,-0 197,-40 191,-46"/>
<polyline fill="none" stroke="gray" points="191,-46 191,-40 "/>
<polyline fill="none" stroke="gray" points="197,-40 191,-40 "/>
<g id="a_node2_0"><a xlink:href="http://www.w3.org/ns/prov#label" xlink:title="&lt;TABLE&gt;">
<text text-anchor="start" x="10.5" y="-32" font-family="Times,serif" font-size="10.00">prov:label</text>
</a>
</g>
<text text-anchor="start" x="76.5" y="-32" font-family="Times,serif" font-size="10.00">Decimate</text>
<g id="a_node2_1"><a xlink:href="http://www.w3.org/ns/prov#type" xlink:title="&lt;TABLE&gt;">
<text text-anchor="start" x="10.5" y="-20" font-family="Times,serif" font-size="10.00">prov:type</text>
</a>
</g>
<text text-anchor="start" x="76.5" y="-20" font-family="Times,serif" font-size="10.00">seis_prov:decimate</text>
<g id="a_node2_2"><a xlink:href="http://seisprov.org/seis_prov/0.1/#factor" xlink:title="&lt;TABLE&gt;">
<text text-anchor="start" x="10.2881" y="-8" font-family="Times,serif" font-size="10.00">seis_prov:factor</text>
</a>
</g>
<text text-anchor="start" x="76.2627" y="-8" font-family="Times,serif" font-size="10.00">&quot;5&quot; %% xsd:positiveInteger</text>
</g>
<!-- ann1&#45;&gt;n1 -->
<g id="edge1" class="edge"><title>ann1&#45;&gt;n1</title>
<path fill="none" stroke="gray" stroke-dasharray="5,2" d="M98.5,-46.0968C98.5,-57.5041 98.5,-71.2129 98.5,-81.817"/>
</g>
</g>
</svg>
