<?xml version="1.0" encoding="UTF-8" standalone="no"?>
<!DOCTYPE svg PUBLIC "-//W3C//DTD SVG 1.1//EN"
 "http://www.w3.org/Graphics/SVG/1.1/DTD/svg11.dtd">
<!-- Generated by graphviz version 2.26.3 (20100126.1600)
 -->
<!-- Title: G Pages: 1 -->
<svg width="224pt" height="132pt"
 viewBox="0.00 0.00 224.00 132.00" xmlns="http://www.w3.org/2000/svg" xmlns:xlink="http://www.w3.org/1999/xlink">
<g id="graph1" class="graph" transform="scale(1 1) rotate(0) translate(4 128)">
<title>G</title>
<polygon fill="white" stroke="white" points="-4,5 -4,-128 221,-128 221,5 -4,5"/>
<!-- n1 -->
<g id="node1" class="node"><title>n1</title>
<a xlink:href="http://seisprov.org/seis_prov/0.1/#sp001_wf_c17dd1f" xlink:title="Waveform Trace&lt;br /&gt;&lt;font color=&quot;#333333&quot; point&#45;size=&quot;10&quot;&gt;seis_prov:sp001_wf_c17dd1f&lt;/font&gt;">
<ellipse fill="#fffc87" stroke="#808080" cx="108" cy="-98" rx="108.187" ry="26.163"/>
<text text-anchor="start" x="52" y="-102.233" font-family="Times Roman,serif" font-size="14.00">Waveform Trace</text>
<text text-anchor="start" x="40" y="-88.3667" font-family="Times Roman,serif" font-size="10.00" fill="#333333">seis_prov:sp001_wf_c17dd1f</text>
</a>
</g>
<!-- ann1 -->
<g id="node2" class="node"><title>ann1</title>
<polygon fill="none" stroke="gray" points="198,-36 12,-36 12,-1.77636e-14 204,-3.55271e-15 204,-30 198,-36"/>
<polyline fill="none" stroke="gray" points="198,-36 198,-30 "/>
<polyline fill="none" stroke="gray" points="204,-30 198,-30 "/>
<a xlink:href="http://www.w3.org/ns/prov#label" xlink:title="&lt;TABLE&gt;">
<text text-anchor="start" x="22" y="-21.1667" font-family="Times Roman,serif" font-size="10.00">prov:label</text>
</a>
<text text-anchor="start" x="71" y="-21.1667" font-family="Times Roman,serif" font-size="10.00">Waveform Trace</text>
<a xlink:href="http://www.w3.org/ns/prov#type" xlink:title="&lt;TABLE&gt;">
<text text-anchor="start" x="22" y="-8.66667" font-family="Times Roman,serif" font-size="10.00">prov:type</text>
</a>
<text text-anchor="start" x="71" y="-8.66667" font-family="Times Roman,serif" font-size="10.00">seis_prov:waveform_trace</text>
</g>
<!-- ann1&#45;&gt;n1 -->
<g id="edge2" class="edge"><title>ann1&#45;&gt;n1</title>
<path fill="none" stroke="gray" stroke-dasharray="5,2" d="M108,-36.1532C108,-46.6641 108,-60.0781 108,-71.7254"/>
</g>
</g>
</svg>
