<?xml version="1.0" encoding="UTF-8" standalone="no"?>
<svg
   xmlns:dc="http://purl.org/dc/elements/1.1/"
   xmlns:cc="http://creativecommons.org/ns#"
   xmlns:rdf="http://www.w3.org/1999/02/22-rdf-syntax-ns#"
   xmlns:svg="http://www.w3.org/2000/svg"
   xmlns="http://www.w3.org/2000/svg"
   version="1.1"
   id="svg2"
   viewBox="0 0 257.16801 200.14557"
   height="56.485527mm"
   width="72.578529mm">
  <defs
     id="defs4" />
  <metadata
     id="metadata7">
    <rdf:RDF>
      <cc:Work
         rdf:about="">
        <dc:format>image/svg+xml</dc:format>
        <dc:type
           rdf:resource="http://purl.org/dc/dcmitype/StillImage" />
        <dc:title></dc:title>
      </cc:Work>
    </rdf:RDF>
  </metadata>
  <g
     transform="translate(-165.6251,-183.10155)"
     id="layer1">
    <g
       id="g4812">
      <circle
         style="fill:none;fill-opacity:1;fill-rule:nonzero;stroke:#000000;stroke-width:8.47500038;stroke-linecap:butt;stroke-miterlimit:4;stroke-dasharray:none;stroke-dashoffset:0;stroke-opacity:1"
         id="ellipse4415"
         cx="360.4953"
         cy="-301.52365"
         transform="scale(1,-1)"
         r="0" />
      <circle
         style="fill:none;fill-opacity:1;fill-rule:nonzero;stroke:#000000;stroke-width:12.80031776;stroke-linecap:butt;stroke-miterlimit:4;stroke-dasharray:none;stroke-dashoffset:0;stroke-opacity:1"
         id="circle4417"
         cx="379.20911"
         cy="-295.52368"
         transform="scale(1,-1)"
         r="25.307634" />
      <circle
         r="11.62503"
         transform="scale(1,-1)"
         cy="-223.38078"
         cx="291.35196"
         id="circle4419"
         style="fill:none;fill-opacity:1;fill-rule:nonzero;stroke:#000000;stroke-width:5.87980986;stroke-linecap:butt;stroke-miterlimit:4;stroke-dasharray:none;stroke-dashoffset:0;stroke-opacity:1" />
      <circle
         style="fill:none;fill-opacity:1;fill-rule:nonzero;stroke:#000000;stroke-width:9.05170918;stroke-linecap:butt;stroke-miterlimit:4;stroke-dasharray:none;stroke-dashoffset:0;stroke-opacity:1"
         id="circle4421"
         cx="309.20911"
         cy="-273.38083"
         transform="scale(1,-1)"
         r="17.896223" />
      <circle
         style="fill:none;fill-opacity:1;fill-rule:nonzero;stroke:#000000;stroke-width:5.87980986;stroke-linecap:butt;stroke-miterlimit:4;stroke-dasharray:none;stroke-dashoffset:0;stroke-opacity:1"
         id="circle4423"
         cx="247.7805"
         cy="-261.95221"
         transform="scale(1,-1)"
         r="11.62503" />
      <circle
         r="7.0641618"
         transform="scale(1,-1)"
         cy="-221.95219"
         cx="185.63765"
         id="circle4425"
         style="fill:none;fill-opacity:1;fill-rule:nonzero;stroke:#000000;stroke-width:3.57297397;stroke-linecap:butt;stroke-miterlimit:4;stroke-dasharray:none;stroke-dashoffset:0;stroke-opacity:1" />
      <circle
         cx="183.4948"
         cy="-265.88077"
         r="7.0641618"
         style="fill:none;fill-opacity:1;fill-rule:nonzero;stroke:#000000;stroke-width:3.57297397;stroke-linecap:butt;stroke-miterlimit:4;stroke-dasharray:none;stroke-dashoffset:0;stroke-opacity:1"
         id="circle4427"
         transform="scale(1,-1)" />
      <circle
         r="7.0641618"
         transform="scale(1,-1)"
         cy="-191.95219"
         cx="239.92337"
         id="circle4429"
         style="fill:none;fill-opacity:1;fill-rule:nonzero;stroke:#000000;stroke-width:3.57297397;stroke-linecap:butt;stroke-miterlimit:4;stroke-dasharray:none;stroke-dashoffset:0;stroke-opacity:1" />
      <path
         id="path4437"
         d="m 323.20909,282.59507 c 14.87762,11.48727 3.99936,25.48366 32.79587,22.93765"
         style="fill:none;fill-rule:evenodd;stroke:#000000;stroke-width:6.4000001;stroke-linecap:butt;stroke-linejoin:miter;stroke-miterlimit:4;stroke-dasharray:none;stroke-opacity:1" />
      <path
         style="fill:none;fill-rule:evenodd;stroke:#000000;stroke-width:5;stroke-linecap:butt;stroke-linejoin:miter;stroke-miterlimit:4;stroke-dasharray:none;stroke-opacity:1"
         d="m 308.56624,254.38079 c -0.96358,-12.01854 -10.02847,-11.65573 -13.92857,-20.35714"
         id="path4439" />
      <path
         id="path4461"
         d="m 293.2091,280.80936 c -22.61368,9.93613 -35.01179,2.7674 -40.71429,-8.21429"
         style="fill:none;fill-rule:evenodd;stroke:#000000;stroke-width:5;stroke-linecap:butt;stroke-linejoin:miter;stroke-miterlimit:4;stroke-dasharray:none;stroke-opacity:1" />
      <path
         id="path4465"
         d="m 284.59253,214.54847 c -2.29901,0.64382 -7.46297,-5.51935 -11.46922,-4.52273 -4.23836,1.05436 -14.23279,8.15267 -14.23279,8.15267 l 15.65337,-22.51687 -24.88559,20.715 11.62889,-20.27373 c 0,0 -5.24117,5.38446 -8.10222,5.32874 -2.43526,-0.0474 -4.81139,-3.31399 -8.43526,-4.71883"
         style="fill:none;fill-rule:evenodd;stroke:#000000;stroke-width:3.5;stroke-linecap:butt;stroke-linejoin:round;stroke-miterlimit:4;stroke-dasharray:none;stroke-opacity:1" />
      <g
         id="text4471"
         style="font-style:normal;font-weight:normal;font-size:53.33159637px;line-height:125%;font-family:Sans;letter-spacing:0px;word-spacing:0px;fill:#000000;fill-opacity:1;stroke:none;stroke-width:1px;stroke-linecap:butt;stroke-linejoin:miter;stroke-opacity:1">
        <path
           id="path4583"
           style="font-style:normal;font-variant:normal;font-weight:300;font-stretch:normal;font-size:53.33159637px;line-height:125%;font-family:'Helvetica Neue';-inkscape-font-specification:'Helvetica Neue, Light';text-align:start;writing-mode:lr-tb;text-anchor:start"
           d="m 191.75979,355.14137 q -0.10666,-2.45325 -1.06663,-4.26653 -0.90664,-1.81327 -2.50658,-3.0399 -1.59995,-1.22662 -3.83988,-1.81327 -2.18659,-0.63998 -4.79984,-0.63998 -1.59995,0 -3.46656,0.37332 -1.81327,0.37332 -3.41322,1.33329 -1.54661,0.90664 -2.55992,2.50658 -1.0133,1.54662 -1.0133,3.89321 0,2.29326 1.11997,3.73321 1.11996,1.43996 2.93324,2.34659 1.81327,0.85331 4.15986,1.38662 2.34659,0.53332 4.74651,1.0133 2.45326,0.47999 4.74651,1.1733 2.34659,0.63998 4.15987,1.81327 1.8666,1.11997 2.98657,2.98657 1.11996,1.81328 1.11996,4.58652 0,2.98657 -1.27996,5.01317 -1.27995,2.0266 -3.25322,3.30656 -1.91994,1.27996 -4.31986,1.81327 -2.34659,0.58665 -4.53319,0.58665 -3.35989,0 -6.29313,-0.74664 -2.93323,-0.69331 -5.11983,-2.29326 -2.1866,-1.65328 -3.46655,-4.2132 -1.22663,-2.55991 -1.1733,-6.23979 l 2.34659,0 q -0.15999,3.14656 0.90664,5.33316 1.06663,2.13326 2.93324,3.51988 1.91993,1.38662 4.47985,2.0266 2.55992,0.58665 5.38649,0.58665 1.70661,0 3.62655,-0.42665 1.97327,-0.42665 3.57322,-1.43995 1.65328,-1.01331 2.71991,-2.66658 1.11996,-1.65328 1.11996,-4.15987 0,-2.39992 -1.11996,-3.89321 -1.11997,-1.54661 -2.98657,-2.45325 -1.81328,-0.95997 -4.15987,-1.49328 -2.29325,-0.58665 -4.74651,-1.06664 -2.39992,-0.47998 -4.74651,-1.11996 -2.34659,-0.63998 -4.15986,-1.70661 -1.81328,-1.11996 -2.93324,-2.82657 -1.11997,-1.75995 -1.11997,-4.47986 0,-2.71991 1.11997,-4.63985 1.17329,-1.97327 2.98657,-3.14656 1.8666,-1.22663 4.15986,-1.75994 2.29326,-0.58665 4.53319,-0.58665 2.98657,0 5.54648,0.69331 2.61325,0.63998 4.53319,2.07993 1.97327,1.38662 3.14656,3.62655 1.1733,2.23993 1.33329,5.38649 l -2.34659,0 z" />
        <path
           id="path4585"
           style="font-style:normal;font-variant:normal;font-weight:300;font-stretch:normal;font-size:53.33159637px;line-height:125%;font-family:'Helvetica Neue';-inkscape-font-specification:'Helvetica Neue, Light';text-align:start;writing-mode:lr-tb;text-anchor:start"
           d="m 200.44784,344.26172 25.59917,0 0,2.02661 -23.25258,0 0,15.25283 21.86596,0 0,2.0266 -21.86596,0 0,16.74612 23.51924,0 0,2.0266 -25.86583,0 0,-38.07876 z" />
        <path
           id="path4587"
           style="font-style:normal;font-variant:normal;font-weight:300;font-stretch:normal;font-size:53.33159637px;line-height:125%;font-family:'Helvetica Neue';-inkscape-font-specification:'Helvetica Neue, Light';text-align:start;writing-mode:lr-tb;text-anchor:start"
           d="m 230.3427,344.26172 2.34659,0 0,38.07876 -2.34659,0 0,-38.07876 z" />
        <path
           id="path4589"
           style="font-style:normal;font-variant:normal;font-weight:300;font-stretch:normal;font-size:53.33159637px;line-height:125%;font-family:'Helvetica Neue';-inkscape-font-specification:'Helvetica Neue, Light';text-align:start;writing-mode:lr-tb;text-anchor:start"
           d="m 264.25743,355.14137 q -0.10667,-2.45325 -1.06663,-4.26653 -0.90664,-1.81327 -2.50659,-3.0399 -1.59995,-1.22662 -3.83987,-1.81327 -2.1866,-0.63998 -4.79985,-0.63998 -1.59995,0 -3.46655,0.37332 -1.81328,0.37332 -3.41322,1.33329 -1.54662,0.90664 -2.55992,2.50658 -1.0133,1.54662 -1.0133,3.89321 0,2.29326 1.11996,3.73321 1.11997,1.43996 2.93324,2.34659 1.81328,0.85331 4.15987,1.38662 2.34659,0.53332 4.74651,1.0133 2.45325,0.47999 4.74651,1.1733 2.34659,0.63998 4.15986,1.81327 1.86661,1.11997 2.98657,2.98657 1.11997,1.81328 1.11997,4.58652 0,2.98657 -1.27996,5.01317 -1.27996,2.0266 -3.25323,3.30656 -1.91994,1.27996 -4.31986,1.81327 -2.34659,0.58665 -4.53318,0.58665 -3.35989,0 -6.29313,-0.74664 -2.93324,-0.69331 -5.11984,-2.29326 -2.18659,-1.65328 -3.46655,-4.2132 -1.22663,-2.55991 -1.17329,-6.23979 l 2.34659,0 q -0.16,3.14656 0.90663,5.33316 1.06663,2.13326 2.93324,3.51988 1.91994,1.38662 4.47985,2.0266 2.55992,0.58665 5.3865,0.58665 1.70661,0 3.62654,-0.42665 1.97327,-0.42665 3.57322,-1.43995 1.65328,-1.01331 2.71991,-2.66658 1.11997,-1.65328 1.11997,-4.15987 0,-2.39992 -1.11997,-3.89321 -1.11996,-1.54661 -2.98657,-2.45325 -1.81327,-0.95997 -4.15986,-1.49328 -2.29326,-0.58665 -4.74651,-1.06664 -2.39992,-0.47998 -4.74651,-1.11996 -2.3466,-0.63998 -4.15987,-1.70661 -1.81327,-1.11996 -2.93324,-2.82657 -1.11996,-1.75995 -1.11996,-4.47986 0,-2.71991 1.11996,-4.63985 1.1733,-1.97327 2.98657,-3.14656 1.86661,-1.22663 4.15987,-1.75994 2.29326,-0.58665 4.53318,-0.58665 2.98657,0 5.54649,0.69331 2.61325,0.63998 4.53318,2.07993 1.97327,1.38662 3.14657,3.62655 1.17329,2.23993 1.33329,5.38649 l -2.34659,0 z" />
        <path
           id="path4591"
           style="font-style:normal;font-variant:normal;font-weight:300;font-stretch:normal;font-size:53.33159637px;line-height:125%;font-family:'Helvetica Neue';-inkscape-font-specification:'Helvetica Neue, Light';text-align:start;writing-mode:lr-tb;text-anchor:start"
           d="m 273.26547,366.82099 11.41296,0 0,2.0266 -11.41296,0 0,-2.0266 z" />
        <path
           id="path4593"
           style="font-style:normal;font-variant:normal;font-weight:300;font-stretch:normal;font-size:53.33159637px;line-height:125%;font-family:'Helvetica Neue';-inkscape-font-specification:'Helvetica Neue, Light';text-align:start;writing-mode:lr-tb;text-anchor:start"
           d="m 291.69487,344.26172 16.2128,0 q 1.59995,0 3.51989,0.37333 1.97327,0.37332 3.62655,1.54661 1.70661,1.11997 2.82657,3.25323 1.11996,2.07993 1.11996,5.49315 0,5.01317 -3.09323,7.73309 -3.09323,2.71991 -8.85304,2.71991 l -13.01291,0 0,16.95944 -2.34659,0 0,-38.07876 z m 2.34659,19.09272 13.38623,0 q 2.55991,0 4.31986,-0.74665 1.81327,-0.79997 2.8799,-2.0266 1.06664,-1.22662 1.54662,-2.71991 0.47998,-1.49328 0.47998,-2.98657 0,-1.06663 -0.31999,-2.50658 -0.31999,-1.49329 -1.27995,-2.82658 -0.95997,-1.38662 -2.71992,-2.29326 -1.70661,-0.95996 -4.58651,-0.95996 l -13.70622,0 0,17.06611 z" />
        <path
           id="path4595"
           style="font-style:normal;font-variant:normal;font-weight:300;font-stretch:normal;font-size:53.33159637px;line-height:125%;font-family:'Helvetica Neue';-inkscape-font-specification:'Helvetica Neue, Light';text-align:start;writing-mode:lr-tb;text-anchor:start"
           d="m 323.15217,344.26172 15.89282,0 q 2.50658,0 4.69318,0.53332 2.18659,0.47999 3.83987,1.65328 1.65328,1.11996 2.55992,2.98657 0.95997,1.86661 0.95997,4.63985 0,3.83987 -2.1866,6.50645 -2.13326,2.61325 -5.97314,3.25323 l 0,0.10666 q 2.61325,0.31999 4.10654,1.38663 1.54661,1.06663 2.29326,2.61324 0.74664,1.54662 0.95997,3.41323 0.21332,1.8666 0.21332,3.73321 0,1.11996 0,2.18659 0,1.06663 0.10666,2.0266 0.10667,0.90664 0.31999,1.70661 0.26666,0.79998 0.69332,1.33329 l -2.61325,0 q -0.74665,-1.33329 -0.85331,-3.09323 -0.0533,-1.81327 -0.0533,-3.73321 0,-1.91994 -0.16,-3.78654 -0.15999,-1.91994 -1.0133,-3.41323 -0.8533,-1.49328 -2.71991,-2.39992 -1.81327,-0.90663 -5.17316,-0.90663 l -13.54623,0 0,17.33276 -2.34659,0 0,-38.07876 z m 15.89282,18.7194 q 2.07993,0 3.83987,-0.47999 1.81328,-0.53332 3.09324,-1.59995 1.27995,-1.06663 2.0266,-2.71991 0.74664,-1.65328 0.74664,-3.94654 0,-2.13326 -0.79998,-3.62655 -0.79997,-1.54661 -2.13326,-2.50658 -1.33329,-0.95997 -3.09323,-1.38662 -1.75994,-0.42665 -3.67988,-0.42665 l -13.54623,0 0,16.69279 13.54623,0 z" />
        <path
           id="path4597"
           style="font-style:normal;font-variant:normal;font-weight:300;font-stretch:normal;font-size:53.33159637px;line-height:125%;font-family:'Helvetica Neue';-inkscape-font-specification:'Helvetica Neue, Light';text-align:start;writing-mode:lr-tb;text-anchor:start"
           d="m 391.30246,363.3011 q 0,4.15987 -1.22663,7.83975 -1.22662,3.62655 -3.57321,6.34646 -2.29326,2.66658 -5.65315,4.2132 -3.35989,1.54661 -7.62642,1.54661 -4.26653,0 -7.67975,-1.54661 -3.35989,-1.54662 -5.70648,-4.2132 -2.29326,-2.71991 -3.51989,-6.34646 -1.22662,-3.67988 -1.22662,-7.83975 0,-4.15986 1.22662,-7.78641 1.22663,-3.67988 3.51989,-6.34646 2.34659,-2.71991 5.70648,-4.26653 3.41322,-1.54661 7.67975,-1.54661 4.26653,0 7.62642,1.54661 3.35989,1.54662 5.65315,4.26653 2.34659,2.66658 3.57321,6.34646 1.22663,3.62655 1.22663,7.78641 z m -33.86556,0 q 0,3.67988 1.06663,6.93311 1.06663,3.25323 3.09323,5.70648 2.0266,2.39992 4.95984,3.83988 2.93324,1.43995 6.66645,1.43995 3.73321,0 6.61312,-1.43995 2.93323,-1.43996 4.95984,-3.83988 2.0266,-2.45325 3.09323,-5.70648 1.06663,-3.25323 1.06663,-6.93311 0,-3.67988 -1.06663,-6.9331 -1.06663,-3.25323 -3.09323,-5.65315 -2.02661,-2.45326 -4.95984,-3.89321 -2.87991,-1.43995 -6.61312,-1.43995 -3.73321,0 -6.66645,1.43995 -2.93324,1.43995 -4.95984,3.89321 -2.0266,2.39992 -3.09323,5.65315 -1.06663,3.25322 -1.06663,6.9331 z" />
        <path
           id="path4599"
           style="font-style:normal;font-variant:normal;font-weight:300;font-stretch:normal;font-size:53.33159637px;line-height:125%;font-family:'Helvetica Neue';-inkscape-font-specification:'Helvetica Neue, Light';text-align:start;writing-mode:lr-tb;text-anchor:start"
           d="m 407.16694,380.31388 0.10666,0 13.17291,-36.05216 2.34659,0 -14.23954,38.07876 -2.71991,0 -14.1862,-38.07876 2.45325,0 13.06624,36.05216 z" />
      </g>
      <path
         style="fill:none;fill-rule:evenodd;stroke:#000000;stroke-width:3.5;stroke-linecap:butt;stroke-linejoin:round;stroke-miterlimit:4;stroke-dasharray:none;stroke-opacity:1"
         d="m 240.33014,252.6111 c 2.8754,-1.34024 -13.42731,-4.27191 -18.18983,-9.31768 -2.99786,-3.17617 2.21822,-14.107 2.21822,-14.107 l -17.49659,24.69924 8.16083,-31.21732 -12.63321,24.74819 c 0,0 3.28933,-13.13399 1.85353,-15.6093 -1.22209,-2.10695 -8.55462,-4.84542 -11.5402,-7.33385"
         id="path4698" />
      <path
         id="path4700"
         d="m 237.80682,266.33418 c -2.29901,0.64382 -4.96297,10.90923 -11.64779,8.69156 -4.14538,-1.37521 -9.05422,11.54553 -9.05422,11.54553 l 4.04622,-23.40973 -15.06416,20.715 4.48604,-19.38087 c 0,0 -6.84832,8.06303 -9.70937,8.00731 -2.43526,-0.0474 -6.5971,-4.92113 -10.22097,-6.32597"
         style="fill:none;fill-rule:evenodd;stroke:#000000;stroke-width:3.5;stroke-linecap:butt;stroke-linejoin:round;stroke-miterlimit:4;stroke-dasharray:none;stroke-opacity:1" />
    </g>
  </g>
</svg>
